<?xml version="1.0" standalone="no"?>
<svg xmlns="http://www.w3.org/2000/svg" version="1.2" baseProfile="tiny" width="256" height="256">
<path d="M142 204 Q 138 0 94 198" stroke="rgb(227,206,138)" stroke-width="1" fill="none" stroke-opacity="1" />
<path d="M242 144 Q 56 123 1 176" stroke="rgb(201,182,123)" stroke-width="1" fill="none" stroke-opacity="1" />
<path d="M13 251 Q 61 21 176 251" stroke="rgb(129,116,76)" stroke-width="1" fill="none" stroke-opacity="1" />
<line x1="103" y1="58" x2="150" y2="200" stroke="rgb(222,198,122)" stroke-width="1" fill="none" stroke-opacity="1" />
<path d="M12 167 Q 215 105 135 37" stroke="rgb(206,186,125)" stroke-width="1" fill="none" stroke-opacity="1" />
<path d="M157 188 Q 0 54 244 164" stroke="rgb(225,205,136)" stroke-width="1" fill="none" stroke-opacity="1" />
<path d="M139 69 Q 138 255 95 17" stroke="rgb(236,214,144)" stroke-width="1" fill="none" stroke-opacity="1" />
<path d="M156 180 Q 0 89 228 153" stroke="rgb(238,216,140)" stroke-width="1" fill="none" stroke-opacity="1" />
<path d="M157 185 Q 0 49 245 164" stroke="rgb(221,201,130)" stroke-width="1" fill="none" stroke-opacity="1" />
<path d="M112 55 Q 60 94 254 163" stroke="rgb(200,180,113)" stroke-width="1" fill="none" stroke-opacity="1" />
<path d="M98 113 Q 254 202 56 108" stroke="rgb(244,221,145)" stroke-width="1" fill="none" stroke-opacity="1" />
<line x1="32" y1="144" x2="221" y2="130" stroke="rgb(196,178,116)" stroke-width="1" fill="none" stroke-opacity="1" />
<line x1="41" y1="137" x2="164" y2="160" stroke="rgb(215,194,125)" stroke-width="1" fill="none" stroke-opacity="1" />
<path d="M60 154 Q 30 96 189 208" stroke="rgb(215,196,127)" stroke-width="1" fill="none" stroke-opacity="1" />
<path d="M124 55 Q 52 227 183 172" stroke="rgb(199,180,122)" stroke-width="1" fill="none" stroke-opacity="1" />
<path d="M36 140 Q 51 236 32 119" stroke="rgb(208,192,136)" stroke-width="1" fill="none" stroke-opacity="1" />
<path d="M98 162 Q 255 103 33 149" stroke="rgb(237,215,144)" stroke-width="1" fill="none" stroke-opacity="1" />
<line x1="50" y1="146" x2="242" y2="135" stroke="rgb(198,179,117)" stroke-width="1" fill="none" stroke-opacity="1" />
<path d="M91 151 Q 247 214 68 31" stroke="rgb(224,200,122)" stroke-width="1" fill="none" stroke-opacity="1" />
<path d="M147 198 Q 79 23 159 132" stroke="rgb(216,192,117)" stroke-width="1" fill="none" stroke-opacity="1" />
<path d="M17 175 Q 254 52 58 137" stroke="rgb(212,191,125)" stroke-width="1" fill="none" stroke-opacity="1" />
<path d="M121 48 Q 128 142 114 209" stroke="rgb(197,175,108)" stroke-width="1" fill="none" stroke-opacity="1" />
<path d="M102 71 Q 115 195 166 189" stroke="rgb(229,207,137)" stroke-width="1" fill="none" stroke-opacity="1" />
<path d="M145 203 Q 129 228 161 9" stroke="rgb(217,191,114)" stroke-width="1" fill="none" stroke-opacity="1" />
<line x1="10" y1="169" x2="66" y2="149" stroke="rgb(177,165,121)" stroke-width="1" fill="none" stroke-opacity="1" />
<path d="M20 176 Q 147 102 153 134" stroke="rgb(207,186,120)" stroke-width="1" fill="none" stroke-opacity="1" />
<line x1="155" y1="47" x2="150" y2="198" stroke="rgb(214,190,114)" stroke-width="1" fill="none" stroke-opacity="1" />
<path d="M149 201 Q 161 47 82 181" stroke="rgb(230,207,133)" stroke-width="1" fill="none" stroke-opacity="1" />
<path d="M137 205 Q 192 78 255 152" stroke="rgb(197,178,114)" stroke-width="1" fill="none" stroke-opacity="1" />
<path d="M100 108 Q 203 132 248 163" stroke="rgb(177,158,102)" stroke-width="1" fill="none" stroke-opacity="1" />
<path d="M229 93 Q 147 212 26 124" stroke="rgb(164,147,89)" stroke-width="1" fill="none" stroke-opacity="1" />
<path d="M171 127 Q 46 55 133 229" stroke="rgb(210,190,130)" stroke-width="1" fill="none" stroke-opacity="1" />
<path d="M140 62 Q 167 23 102 212" stroke="rgb(217,198,130)" stroke-width="1" fill="none" stroke-opacity="1" />
<path d="M96 145 Q 248 203 78 56" stroke="rgb(234,209,129)" stroke-width="1" fill="none" stroke-opacity="1" />
<line x1="142" y1="56" x2="148" y2="200" stroke="rgb(218,194,118)" stroke-width="1" fill="none" stroke-opacity="1" />
<line x1="13" y1="169" x2="64" y2="151" stroke="rgb(182,169,121)" stroke-width="1" fill="none" stroke-opacity="1" />
<path d="M218 126 Q 233 153 175 124" stroke="rgb(206,187,116)" stroke-width="1" fill="none" stroke-opacity="1" />
<line x1="74" y1="135" x2="159" y2="189" stroke="rgb(209,188,121)" stroke-width="1" fill="none" stroke-opacity="1" />
<path d="M165 165 Q 109 60 164 48" stroke="rgb(228,208,136)" stroke-width="1" fill="none" stroke-opacity="1" />
<path d="M105 109 Q 111 230 137 79" stroke="rgb(235,217,147)" stroke-width="1" fill="none" stroke-opacity="1" />
<line x1="100" y1="78" x2="168" y2="119" stroke="rgb(203,180,108)" stroke-width="1" fill="none" stroke-opacity="1" />
<path d="M35 140 Q 188 146 159 173" stroke="rgb(193,178,127)" stroke-width="1" fill="none" stroke-opacity="1" />
<line x1="102" y1="90" x2="170" y2="125" stroke="rgb(213,189,116)" stroke-width="1" fill="none" stroke-opacity="1" />
<path d="M29 181 Q 168 43 93 198" stroke="rgb(198,179,114)" stroke-width="1" fill="none" stroke-opacity="1" />
<line x1="31" y1="145" x2="28" y2="181" stroke="rgb(229,213,154)" stroke-width="1" fill="none" stroke-opacity="1" />
<path d="M137 106 Q 156 237 135 97" stroke="rgb(242,217,135)" stroke-width="1" fill="none" stroke-opacity="1" />
<path d="M174 177 Q 126 202 114 17" stroke="rgb(198,177,111)" stroke-width="1" fill="none" stroke-opacity="1" />
<path d="M104 133 Q 108 0 102 200" stroke="rgb(231,216,159)" stroke-width="1" fill="none" stroke-opacity="1" />
<path d="M144 176 Q 204 207 28 115" stroke="rgb(217,196,125)" stroke-width="1" fill="none" stroke-opacity="1" />
<path d="M107 56 Q 117 254 154 42" stroke="rgb(223,199,123)" stroke-width="1" fill="none" stroke-opacity="1" />
<line x1="78" y1="140" x2="174" y2="128" stroke="rgb(232,209,135)" stroke-width="1" fill="none" stroke-opacity="1" />
<path d="M107 53 Q 249 255 68 46" stroke="rgb(204,182,111)" stroke-width="1" fill="none" stroke-opacity="1" />
<path d="M155 193 Q 144 48 141 58" stroke="rgb(220,195,118)" stroke-width="1" fill="none" stroke-opacity="1" />
<line x1="32" y1="145" x2="40" y2="182" stroke="rgb(211,198,149)" stroke-width="1" fill="none" stroke-opacity="1" />
<path d="M64 140 Q 255 112 79 93" stroke="rgb(216,193,122)" stroke-width="1" fill="none" stroke-opacity="1" />
<path d="M140 66 Q 208 225 60 124" stroke="rgb(235,210,129)" stroke-width="1" fill="none" stroke-opacity="1" />
<line x1="134" y1="148" x2="239" y2="133" stroke="rgb(199,178,115)" stroke-width="1" fill="none" stroke-opacity="1" />
<line x1="101" y1="128" x2="243" y2="139" stroke="rgb(205,184,116)" stroke-width="1" fill="none" stroke-opacity="1" />
<line x1="157" y1="56" x2="137" y2="205" stroke="rgb(213,187,111)" stroke-width="1" fill="none" stroke-opacity="1" />
<line x1="185" y1="6" x2="185" y2="5" stroke="rgb(0,0,0)" stroke-width="1" fill="none" stroke-opacity="1" />
<path d="M102 58 Q 122 226 120 190" stroke="rgb(202,183,125)" stroke-width="1" fill="none" stroke-opacity="1" />
<line x1="113" y1="53" x2="138" y2="202" stroke="rgb(209,186,114)" stroke-width="1" fill="none" stroke-opacity="1" />
<path d="M127 173 Q 160 160 97 31" stroke="rgb(211,190,122)" stroke-width="1" fill="none" stroke-opacity="1" />
<path d="M195 146 Q 180 68 144 230" stroke="rgb(171,152,92)" stroke-width="1" fill="none" stroke-opacity="1" />
<line x1="30" y1="145" x2="26" y2="180" stroke="rgb(225,209,147)" stroke-width="1" fill="none" stroke-opacity="1" />
<line x1="154" y1="50" x2="144" y2="203" stroke="rgb(215,191,115)" stroke-width="1" fill="none" stroke-opacity="1" />
<path d="M157 62 Q 40 27 185 201" stroke="rgb(195,173,106)" stroke-width="1" fill="none" stroke-opacity="1" />
<line x1="152" y1="51" x2="157" y2="192" stroke="rgb(213,189,114)" stroke-width="1" fill="none" stroke-opacity="1" />
<line x1="76" y1="137" x2="147" y2="196" stroke="rgb(160,144,98)" stroke-width="1" fill="none" stroke-opacity="1" />
<line x1="87" y1="148" x2="148" y2="202" stroke="rgb(139,125,81)" stroke-width="1" fill="none" stroke-opacity="1" />
<path d="M112 107 Q 186 62 115 194" stroke="rgb(212,191,124)" stroke-width="1" fill="none" stroke-opacity="1" />
<line x1="139" y1="65" x2="166" y2="160" stroke="rgb(222,196,117)" stroke-width="1" fill="none" stroke-opacity="1" />
<path d="M126 126 Q 219 73 99 229" stroke="rgb(206,183,110)" stroke-width="1" fill="none" stroke-opacity="1" />
<line x1="101" y1="65" x2="161" y2="167" stroke="rgb(222,198,121)" stroke-width="1" fill="none" stroke-opacity="1" />
<line x1="57" y1="237" x2="56" y2="238" stroke="rgb(0,0,0)" stroke-width="1" fill="none" stroke-opacity="1" />
<line x1="139" y1="61" x2="173" y2="148" stroke="rgb(214,190,114)" stroke-width="1" fill="none" stroke-opacity="1" />
<line x1="16" y1="169" x2="50" y2="171" stroke="rgb(239,218,140)" stroke-width="1" fill="none" stroke-opacity="1" />
<path d="M129 134 Q 42 131 191 34" stroke="rgb(191,173,115)" stroke-width="1" fill="none" stroke-opacity="1" />
<path d="M114 50 Q 131 115 147 204" stroke="rgb(213,190,119)" stroke-width="1" fill="none" stroke-opacity="1" />
<line x1="101" y1="82" x2="159" y2="184" stroke="rgb(226,203,127)" stroke-width="1" fill="none" stroke-opacity="1" />
<path d="M98 156 Q 214 91 181 145" stroke="rgb(193,174,109)" stroke-width="1" fill="none" stroke-opacity="1" />
<line x1="101" y1="78" x2="117" y2="195" stroke="rgb(193,183,138)" stroke-width="1" fill="none" stroke-opacity="1" />
<path d="M104 166 Q 70 170 251 114" stroke="rgb(220,199,122)" stroke-width="1" fill="none" stroke-opacity="1" />
<line x1="74" y1="234" x2="74" y2="234" stroke="rgb(0,0,0)" stroke-width="1" fill="none" stroke-opacity="1" />
<line x1="100" y1="110" x2="116" y2="194" stroke="rgb(182,170,133)" stroke-width="1" fill="none" stroke-opacity="1" />
<line x1="91" y1="135" x2="155" y2="88" stroke="rgb(222,200,132)" stroke-width="1" fill="none" stroke-opacity="1" />
<path d="M94 118 Q 108 189 111 75" stroke="rgb(233,217,161)" stroke-width="1" fill="none" stroke-opacity="1" />
<path d="M238 131 Q 23 176 142 64" stroke="rgb(217,196,130)" stroke-width="1" fill="none" stroke-opacity="1" />
<path d="M234 133 Q 62 143 66 147" stroke="rgb(212,192,123)" stroke-width="1" fill="none" stroke-opacity="1" />
<path d="M152 200 Q 167 109 143 39" stroke="rgb(204,181,109)" stroke-width="1" fill="none" stroke-opacity="1" />
<line x1="17" y1="173" x2="47" y2="178" stroke="rgb(233,215,151)" stroke-width="1" fill="none" stroke-opacity="1" />
<line x1="117" y1="50" x2="104" y2="170" stroke="rgb(217,196,132)" stroke-width="1" fill="none" stroke-opacity="1" />
<line x1="82" y1="142" x2="155" y2="194" stroke="rgb(165,150,102)" stroke-width="1" fill="none" stroke-opacity="1" />
<line x1="138" y1="73" x2="153" y2="195" stroke="rgb(224,199,119)" stroke-width="1" fill="none" stroke-opacity="1" />
<line x1="100" y1="40" x2="101" y2="41" stroke="rgb(0,0,0)" stroke-width="1" fill="none" stroke-opacity="1" />
<line x1="66" y1="80" x2="65" y2="80" stroke="rgb(0,0,0)" stroke-width="1" fill="none" stroke-opacity="1" />
<path d="M118 118 Q 101 153 173 122" stroke="rgb(249,221,132)" stroke-width="1" fill="none" stroke-opacity="1" />
<line x1="102" y1="65" x2="139" y2="173" stroke="rgb(223,198,120)" stroke-width="1" fill="none" stroke-opacity="1" />
<path d="M122 151 Q 212 183 66 133" stroke="rgb(242,218,138)" stroke-width="1" fill="none" stroke-opacity="1" />
<line x1="101" y1="107" x2="169" y2="121" stroke="rgb(213,190,117)" stroke-width="1" fill="none" stroke-opacity="1" />
<path d="M47 184 Q 21 145 194 100" stroke="rgb(199,181,122)" stroke-width="1" fill="none" stroke-opacity="1" />
<path d="M119 102 Q 108 0 194 177" stroke="rgb(183,162,95)" stroke-width="1" fill="none" stroke-opacity="1" />
<path d="M104 174 Q 143 7 175 177" stroke="rgb(225,201,126)" stroke-width="1" fill="none" stroke-opacity="1" />
<line x1="138" y1="64" x2="154" y2="191" stroke="rgb(223,198,119)" stroke-width="1" fill="none" stroke-opacity="1" />
<line x1="87" y1="132" x2="150" y2="89" stroke="rgb(211,192,129)" stroke-width="1" fill="none" stroke-opacity="1" />
<line x1="47" y1="134" x2="31" y2="183" stroke="rgb(203,183,115)" stroke-width="1" fill="none" stroke-opacity="1" />
<path d="M161 166 Q 135 31 185 176" stroke="rgb(218,194,115)" stroke-width="1" fill="none" stroke-opacity="1" />
<line x1="101" y1="105" x2="112" y2="191" stroke="rgb(189,177,136)" stroke-width="1" fill="none" stroke-opacity="1" />
<line x1="255" y1="92" x2="256" y2="93" stroke="rgb(0,0,0)" stroke-width="1" fill="none" stroke-opacity="1" />
<path d="M168 52 Q 5 151 177 215" stroke="rgb(142,128,85)" stroke-width="1" fill="none" stroke-opacity="1" />
<line x1="190" y1="125" x2="240" y2="137" stroke="rgb(159,146,101)" stroke-width="1" fill="none" stroke-opacity="1" />
<line x1="100" y1="168" x2="226" y2="125" stroke="rgb(202,181,112)" stroke-width="1" fill="none" stroke-opacity="1" />
<line x1="158" y1="60" x2="139" y2="198" stroke="rgb(216,190,112)" stroke-width="1" fill="none" stroke-opacity="1" />
<path d="M109 147 Q 221 226 73 24" stroke="rgb(208,186,114)" stroke-width="1" fill="none" stroke-opacity="1" />
<line x1="118" y1="52" x2="139" y2="203" stroke="rgb(208,185,113)" stroke-width="1" fill="none" stroke-opacity="1" />
<line x1="255" y1="181" x2="256" y2="182" stroke="rgb(0,0,0)" stroke-width="1" fill="none" stroke-opacity="1" />
<line x1="191" y1="126" x2="244" y2="143" stroke="rgb(155,141,97)" stroke-width="1" fill="none" stroke-opacity="1" />
<line x1="100" y1="63" x2="159" y2="187" stroke="rgb(220,197,123)" stroke-width="1" fill="none" stroke-opacity="1" />
<line x1="103" y1="255" x2="103" y2="255" stroke="rgb(0,0,0)" stroke-width="1" fill="none" stroke-opacity="1" />
<path d="M137 147 Q 232 145 62 136" stroke="rgb(242,219,141)" stroke-width="1" fill="none" stroke-opacity="1" />
<line x1="229" y1="127" x2="235" y2="157" stroke="rgb(169,151,101)" stroke-width="1" fill="none" stroke-opacity="1" />
<path d="M159 146 Q 83 108 118 206" stroke="rgb(215,194,127)" stroke-width="1" fill="none" stroke-opacity="1" />
<line x1="90" y1="134" x2="123" y2="55" stroke="rgb(212,194,133)" stroke-width="1" fill="none" stroke-opacity="1" />
<line x1="112" y1="52" x2="136" y2="198" stroke="rgb(204,182,112)" stroke-width="1" fill="none" stroke-opacity="1" />
<line x1="122" y1="51" x2="128" y2="186" stroke="rgb(175,156,96)" stroke-width="1" fill="none" stroke-opacity="1" /></svg>