<?xml version="1.0" standalone="no"?>
<svg xmlns="http://www.w3.org/2000/svg" version="1.2" baseProfile="tiny" width="256" height="256">
<polygon points="188,255 17,81 190,12" fill="rgb(124,155,150)" fill-opacity="1"/>
<polygon points="91,7 146,254 47,50" fill="rgb(147,187,186)" fill-opacity="1"/>
<polygon points="51,118 59,28 149,176" fill="rgb(167,214,212)" fill-opacity="1"/>
<polygon points="195,101 114,78 164,9" fill="rgb(164,188,176)" fill-opacity="1"/>
<polygon points="182,244 220,144 103,234" fill="rgb(105,119,103)" fill-opacity="1"/>
<polygon points="189,105 189,138 152,120" fill="rgb(18,20,20)" fill-opacity="1"/>
<polygon points="38,72 17,81 41,105" fill="rgb(4,5,5)" fill-opacity="1"/>
<polygon points="187,207 98,148 97,212" fill="rgb(92,145,156)" fill-opacity="1"/>
<polygon points="101,73 135,117 119,129" fill="rgb(12,15,15)" fill-opacity="1"/>
<polygon points="195,208 219,176 186,133" fill="rgb(131,163,160)" fill-opacity="1"/>
<polygon points="103,77 98,48 154,27" fill="rgb(8,10,10)" fill-opacity="1"/>
<polygon points="153,25 128,47 154,40" fill="rgb(10,11,10)" fill-opacity="1"/>
<polygon points="174,44 189,11 190,59" fill="rgb(8,10,10)" fill-opacity="1"/>
<polygon points="168,218 186,235 198,199" fill="rgb(21,23,19)" fill-opacity="1"/>
<polygon points="70,108 126,181 212,162" fill="rgb(152,205,208)" fill-opacity="1"/>
<polygon points="125,99 130,75 195,102" fill="rgb(169,152,93)" fill-opacity="1"/>
<polygon points="92,184 115,156 96,196" fill="rgb(96,138,144)" fill-opacity="1"/>
<polygon points="121,149 37,90 91,36" fill="rgb(172,218,215)" fill-opacity="1"/>
<polygon points="177,13 181,29 123,83" fill="rgb(181,217,213)" fill-opacity="1"/>
<polygon points="114,225 129,214 172,223" fill="rgb(48,45,34)" fill-opacity="1"/></svg>