<?xml version="1.0" standalone="no"?>
<svg xmlns="http://www.w3.org/2000/svg" version="1.2" baseProfile="tiny" width="256" height="256">
<circle cx="128" cy="163" r="61" fill="rgb(167,126,100)" fill-opacity="1" />
<circle cx="30" cy="186" r="16" fill="rgb(186,158,70)" fill-opacity="1" />
<g transform="translate(219 190) rotate(186) scale(26 11)"><ellipse cx="0" cy="0" rx="1" ry="1" fill="rgb(198,166,70)" fill-opacity="1" /></g>
<ellipse cx="153" cy="61" rx="29" ry="38" fill="rgb(187,158,71)" fill-opacity="1" />
<ellipse cx="89" cy="182" rx="52" ry="11" fill="rgb(189,148,106)" fill-opacity="1" />
<ellipse cx="36" cy="191" rx="20" ry="6" fill="rgb(239,200,82)" fill-opacity="1" />
<circle cx="77" cy="217" r="17" fill="rgb(182,154,69)" fill-opacity="1" />
<ellipse cx="168" cy="181" rx="33" ry="13" fill="rgb(155,105,82)" fill-opacity="1" />
<g transform="translate(163 89) rotate(306) scale(29 8)"><ellipse cx="0" cy="0" rx="1" ry="1" fill="rgb(88,74,31)" fill-opacity="1" /></g>
<g transform="translate(145 208) rotate(69) scale(13 33)"><ellipse cx="0" cy="0" rx="1" ry="1" fill="rgb(72,44,36)" fill-opacity="1" /></g>
<ellipse cx="175" cy="133" rx="8" ry="12" fill="rgb(149,103,87)" fill-opacity="1" />
<circle cx="143" cy="136" r="23" fill="rgb(219,197,141)" fill-opacity="1" />
<circle cx="157" cy="138" r="6" fill="rgb(114,99,57)" fill-opacity="1" />
<ellipse cx="138" cy="192" rx="10" ry="17" fill="rgb(166,148,122)" fill-opacity="1" />
<ellipse cx="130" cy="108" rx="25" ry="6" fill="rgb(76,58,34)" fill-opacity="1" />
<ellipse cx="93" cy="167" rx="32" ry="27" fill="rgb(197,139,121)" fill-opacity="1" />
<circle cx="167" cy="46" r="16" fill="rgb(229,194,83)" fill-opacity="1" />
<circle cx="185" cy="163" r="15" fill="rgb(153,135,102)" fill-opacity="1" />
<g transform="translate(112 137) rotate(59) scale(25 9)"><ellipse cx="0" cy="0" rx="1" ry="1" fill="rgb(207,155,138)" fill-opacity="1" /></g>
<ellipse cx="93" cy="218" rx="14" ry="8" fill="rgb(233,196,81)" fill-opacity="1" />
<ellipse cx="180" cy="147" rx="5" ry="20" fill="rgb(161,133,111)" fill-opacity="1" />
<circle cx="159" cy="192" r="12" fill="rgb(153,59,55)" fill-opacity="1" />
<g transform="translate(37 185) rotate(6) scale(26 7)"><ellipse cx="0" cy="0" rx="1" ry="1" fill="rgb(240,203,90)" fill-opacity="1" /></g>
<g transform="translate(90 194) rotate(120) scale(16 10)"><ellipse cx="0" cy="0" rx="1" ry="1" fill="rgb(114,49,43)" fill-opacity="1" /></g>
<ellipse cx="135" cy="165" rx="40" ry="6" fill="rgb(179,74,72)" fill-opacity="1" />
<ellipse cx="228" cy="190" rx="15" ry="11" fill="rgb(234,196,81)" fill-opacity="1" />
<circle cx="151" cy="143" r="2" fill="rgb(73,66,47)" fill-opacity="1" />
<ellipse cx="31" cy="98" rx="1" ry="1" fill="rgb(0,0,0)" fill-opacity="1" />
<circle cx="61" cy="255" r="1" fill="rgb(0,0,0)" fill-opacity="1" />
<circle cx="82" cy="46" r="1" fill="rgb(0,0,0)" fill-opacity="1" />
<g transform="translate(91 214) rotate(346) scale(37 7)"><ellipse cx="0" cy="0" rx="1" ry="1" fill="rgb(229,193,84)" fill-opacity="1" /></g>
<ellipse cx="217" cy="108" rx="1" ry="1" fill="rgb(0,0,0)" fill-opacity="1" />
<ellipse cx="151" cy="44" rx="24" ry="18" fill="rgb(240,205,98)" fill-opacity="1" />
<circle cx="59" cy="24" r="1" fill="rgb(0,0,0)" fill-opacity="1" />
<circle cx="91" cy="148" r="17" fill="rgb(205,168,145)" fill-opacity="1" />
<circle cx="222" cy="196" r="6" fill="rgb(239,200,82)" fill-opacity="1" />
<ellipse cx="180" cy="190" rx="6" ry="4" fill="rgb(188,174,144)" fill-opacity="1" />
<circle cx="160" cy="171" r="13" fill="rgb(153,60,55)" fill-opacity="1" />
<g transform="translate(149 153) rotate(270) scale(7 13)"><ellipse cx="0" cy="0" rx="1" ry="1" fill="rgb(237,221,180)" fill-opacity="1" /></g>
<ellipse cx="126" cy="177" rx="15" ry="7" fill="rgb(226,210,172)" fill-opacity="1" />
<g transform="translate(75 156) rotate(198) scale(7 20)"><ellipse cx="0" cy="0" rx="1" ry="1" fill="rgb(221,190,163)" fill-opacity="1" /></g>
<ellipse cx="85" cy="186" rx="3" ry="15" fill="rgb(134,53,49)" fill-opacity="1" />
<circle cx="86" cy="129" r="6" fill="rgb(50,47,41)" fill-opacity="1" />
<circle cx="79" cy="202" r="7" fill="rgb(10,8,4)" fill-opacity="1" />
<ellipse cx="78" cy="231" rx="9" ry="2" fill="rgb(26,23,9)" fill-opacity="1" />
<circle cx="136" cy="52" r="12" fill="rgb(240,202,87)" fill-opacity="1" />
<circle cx="176" cy="53" r="9" fill="rgb(223,188,79)" fill-opacity="1" />
<ellipse cx="177" cy="178" rx="5" ry="17" fill="rgb(194,180,149)" fill-opacity="1" />
<g transform="translate(23 198) rotate(106) scale(1 13)"><ellipse cx="0" cy="0" rx="1" ry="1" fill="rgb(19,14,5)" fill-opacity="1" /></g>
<circle cx="151" cy="103" r="10" fill="rgb(231,194,83)" fill-opacity="1" />
<g transform="translate(96 180) rotate(111) scale(16 8)"><ellipse cx="0" cy="0" rx="1" ry="1" fill="rgb(171,67,65)" fill-opacity="1" /></g>
<g transform="translate(165 82) rotate(276) scale(13 7)"><ellipse cx="0" cy="0" rx="1" ry="1" fill="rgb(8,6,2)" fill-opacity="1" /></g>
<circle cx="102" cy="112" r="4" fill="rgb(9,9,7)" fill-opacity="1" />
<ellipse cx="155" cy="176" rx="10" ry="16" fill="rgb(155,60,55)" fill-opacity="1" />
<g transform="translate(178 255) rotate(226) scale(1 1)"><ellipse cx="0" cy="0" rx="1" ry="1" fill="rgb(0,0,0)" fill-opacity="1" /></g>
<ellipse cx="154" cy="245" rx="1" ry="1" fill="rgb(0,0,0)" fill-opacity="1" />
<circle cx="176" cy="44" r="2" fill="rgb(103,87,36)" fill-opacity="1" />
<g transform="translate(182 164) rotate(109) scale(14 6)"><ellipse cx="0" cy="0" rx="1" ry="1" fill="rgb(206,191,157)" fill-opacity="1" /></g>
<ellipse cx="174" cy="78" rx="4" ry="8" fill="rgb(0,0,0)" fill-opacity="1" />
<g transform="translate(113 151) rotate(210) scale(12 14)"><ellipse cx="0" cy="0" rx="1" ry="1" fill="rgb(199,117,114)" fill-opacity="1" /></g>
<g transform="translate(170 33) rotate(123) scale(3 10)"><ellipse cx="0" cy="0" rx="1" ry="1" fill="rgb(237,201,83)" fill-opacity="1" /></g>
<circle cx="193" cy="169" r="5" fill="rgb(86,79,58)" fill-opacity="1" />
<g transform="translate(106 176) rotate(144) scale(15 2)"><ellipse cx="0" cy="0" rx="1" ry="1" fill="rgb(166,68,65)" fill-opacity="1" /></g>
<circle cx="149" cy="125" r="13" fill="rgb(228,194,91)" fill-opacity="1" />
<g transform="translate(25 0) rotate(27) scale(1 1)"><ellipse cx="0" cy="0" rx="1" ry="1" fill="rgb(0,0,0)" fill-opacity="1" /></g>
<g transform="translate(112 135) rotate(17) scale(1 25)"><ellipse cx="0" cy="0" rx="1" ry="1" fill="rgb(183,115,110)" fill-opacity="1" /></g>
<circle cx="170" cy="121" r="4" fill="rgb(193,179,148)" fill-opacity="1" />
<ellipse cx="0" cy="124" rx="1" ry="1" fill="rgb(0,0,0)" fill-opacity="1" />
<ellipse cx="23" cy="186" rx="10" ry="8" fill="rgb(243,207,95)" fill-opacity="1" />
<circle cx="129" cy="196" r="6" fill="rgb(108,91,42)" fill-opacity="1" />
<ellipse cx="122" cy="200" rx="9" ry="11" fill="rgb(176,148,70)" fill-opacity="1" />
<circle cx="40" cy="60" r="1" fill="rgb(0,0,0)" fill-opacity="1" />
<g transform="translate(159 57) rotate(197) scale(20 11)"><ellipse cx="0" cy="0" rx="1" ry="1" fill="rgb(231,194,81)" fill-opacity="1" /></g>
<circle cx="70" cy="205" r="4" fill="rgb(12,10,5)" fill-opacity="1" />
<circle cx="131" cy="125" r="9" fill="rgb(242,228,191)" fill-opacity="1" />
<ellipse cx="85" cy="159" rx="9" ry="9" fill="rgb(197,122,119)" fill-opacity="1" />
<g transform="translate(176 140) rotate(337) scale(3 14)"><ellipse cx="0" cy="0" rx="1" ry="1" fill="rgb(141,69,61)" fill-opacity="1" /></g>
<ellipse cx="148" cy="196" rx="1" ry="12" fill="rgb(112,65,56)" fill-opacity="1" />
<circle cx="148" cy="34" r="9" fill="rgb(248,220,137)" fill-opacity="1" />
<circle cx="104" cy="121" r="6" fill="rgb(241,227,187)" fill-opacity="1" />
<circle cx="148" cy="92" r="10" fill="rgb(230,193,82)" fill-opacity="1" />
<ellipse cx="100" cy="134" rx="6" ry="9" fill="rgb(222,206,169)" fill-opacity="1" />
<ellipse cx="125" cy="161" rx="13" ry="8" fill="rgb(196,80,80)" fill-opacity="1" />
<g transform="translate(111 191) rotate(344) scale(9 12)"><ellipse cx="0" cy="0" rx="1" ry="1" fill="rgb(195,177,132)" fill-opacity="1" /></g>
<ellipse cx="154" cy="58" rx="29" ry="9" fill="rgb(235,197,82)" fill-opacity="1" />
<ellipse cx="149" cy="67" rx="22" ry="2" fill="rgb(209,173,74)" fill-opacity="1" />
<g transform="translate(172 74) rotate(245) scale(5 10)"><ellipse cx="0" cy="0" rx="1" ry="1" fill="rgb(5,4,0)" fill-opacity="1" /></g>
<ellipse cx="134" cy="216" rx="19" ry="7" fill="rgb(1,0,0)" fill-opacity="1" />
<ellipse cx="148" cy="116" rx="6" ry="27" fill="rgb(240,202,89)" fill-opacity="1" />
<circle cx="114" cy="219" r="4" fill="rgb(16,13,5)" fill-opacity="1" />
<ellipse cx="141" cy="147" rx="15" ry="4" fill="rgb(245,228,185)" fill-opacity="1" />
<ellipse cx="94" cy="126" rx="3" ry="4" fill="rgb(37,35,32)" fill-opacity="1" />
<circle cx="0" cy="213" r="1" fill="rgb(0,0,0)" fill-opacity="1" />
<circle cx="0" cy="157" r="1" fill="rgb(0,0,0)" fill-opacity="1" />
<circle cx="96" cy="198" r="7" fill="rgb(131,53,48)" fill-opacity="1" />
<ellipse cx="137" cy="185" rx="9" ry="7" fill="rgb(192,178,147)" fill-opacity="1" />
<circle cx="135" cy="76" r="8" fill="rgb(167,139,60)" fill-opacity="1" />
<circle cx="140" cy="78" r="8" fill="rgb(197,164,71)" fill-opacity="1" />
<ellipse cx="127" cy="204" rx="6" ry="6" fill="rgb(155,136,87)" fill-opacity="1" />
<circle cx="67" cy="189" r="4" fill="rgb(43,39,31)" fill-opacity="1" />
<circle cx="117" cy="200" r="9" fill="rgb(191,159,74)" fill-opacity="1" />
<ellipse cx="180" cy="0" rx="1" ry="1" fill="rgb(0,0,0)" fill-opacity="1" />
<ellipse cx="129" cy="133" rx="8" ry="13" fill="rgb(248,233,196)" fill-opacity="1" />
<g transform="translate(167 181) rotate(348) scale(4 15)"><ellipse cx="0" cy="0" rx="1" ry="1" fill="rgb(149,58,53)" fill-opacity="1" /></g>
<circle cx="160" cy="134" r="3" fill="rgb(63,56,38)" fill-opacity="1" />
<ellipse cx="41" cy="184" rx="25" ry="7" fill="rgb(243,204,87)" fill-opacity="1" />
<ellipse cx="77" cy="144" rx="4" ry="12" fill="rgb(220,190,162)" fill-opacity="1" />
<circle cx="156" cy="114" r="6" fill="rgb(232,194,80)" fill-opacity="1" />
<circle cx="198" cy="159" r="3" fill="rgb(139,120,55)" fill-opacity="1" />
<ellipse cx="94" cy="122" rx="4" ry="2" fill="rgb(25,23,21)" fill-opacity="1" />
<circle cx="31" cy="98" r="1" fill="rgb(0,0,0)" fill-opacity="1" />
<g transform="translate(243 48) rotate(98) scale(1 1)"><ellipse cx="0" cy="0" rx="1" ry="1" fill="rgb(0,0,0)" fill-opacity="1" /></g>
<circle cx="132" cy="196" r="3" fill="rgb(28,25,19)" fill-opacity="1" />
<g transform="translate(145 84) rotate(5) scale(12 1)"><ellipse cx="0" cy="0" rx="1" ry="1" fill="rgb(201,167,72)" fill-opacity="1" /></g>
<ellipse cx="106" cy="127" rx="7" ry="11" fill="rgb(231,216,177)" fill-opacity="1" />
<circle cx="218" cy="108" r="1" fill="rgb(0,0,0)" fill-opacity="1" />
<circle cx="87" cy="143" r="8" fill="rgb(236,219,179)" fill-opacity="1" />
<circle cx="152" cy="170" r="10" fill="rgb(161,62,57)" fill-opacity="1" />
<circle cx="97" cy="113" r="3" fill="rgb(6,5,5)" fill-opacity="1" />
<ellipse cx="130" cy="201" rx="2" ry="3" fill="rgb(37,33,22)" fill-opacity="1" /></svg>