<?xml version="1.0" standalone="no"?>
<svg xmlns="http://www.w3.org/2000/svg" version="1.2" baseProfile="tiny" width="256" height="256">
<path d="M119 147 Q 238 7 1 164" stroke="rgb(122,150,165)" stroke-width="1" fill="none" stroke-opacity="1" />
<path d="M202 159 Q 206 0 224 210" stroke="rgb(119,162,182)" stroke-width="1" fill="none" stroke-opacity="1" />
<path d="M23 165 Q 38 255 85 22" stroke="rgb(110,153,174)" stroke-width="1" fill="none" stroke-opacity="1" />
<path d="M235 165 Q 148 34 85 171" stroke="rgb(132,156,168)" stroke-width="1" fill="none" stroke-opacity="1" />
<path d="M53 196 Q 38 63 254 102" stroke="rgb(105,142,161)" stroke-width="1" fill="none" stroke-opacity="1" />
<path d="M93 141 Q 248 39 226 190" stroke="rgb(140,164,176)" stroke-width="1" fill="none" stroke-opacity="1" />
<path d="M92 135 Q 255 59 56 152" stroke="rgb(192,192,193)" stroke-width="1" fill="none" stroke-opacity="1" />
<path d="M197 65 Q 117 128 41 60" stroke="rgb(98,130,147)" stroke-width="1" fill="none" stroke-opacity="1" />
<path d="M242 143 Q 66 105 7 158" stroke="rgb(113,141,156)" stroke-width="1" fill="none" stroke-opacity="1" />
<path d="M229 117 Q 96 171 116 57" stroke="rgb(136,157,168)" stroke-width="1" fill="none" stroke-opacity="1" />
<path d="M23 135 Q 68 111 255 138" stroke="rgb(120,150,166)" stroke-width="1" fill="none" stroke-opacity="1" />
<path d="M167 137 Q 15 152 240 65" stroke="rgb(160,177,186)" stroke-width="1" fill="none" stroke-opacity="1" />
<path d="M96 140 Q 255 70 26 80" stroke="rgb(147,164,173)" stroke-width="1" fill="none" stroke-opacity="1" />
<path d="M231 119 Q 40 60 46 115" stroke="rgb(109,143,160)" stroke-width="1" fill="none" stroke-opacity="1" />
<path d="M223 175 Q 201 126 213 79" stroke="rgb(114,152,171)" stroke-width="1" fill="none" stroke-opacity="1" />
<path d="M159 149 Q 156 40 1 178" stroke="rgb(129,150,163)" stroke-width="1" fill="none" stroke-opacity="1" />
<path d="M106 54 Q 4 125 42 224" stroke="rgb(129,165,182)" stroke-width="1" fill="none" stroke-opacity="1" />
<line x1="92" y1="63" x2="163" y2="153" stroke="rgb(136,154,163)" stroke-width="1" fill="none" stroke-opacity="1" />
<path d="M112 57 Q 6 94 38 228" stroke="rgb(129,164,180)" stroke-width="1" fill="none" stroke-opacity="1" />
<path d="M148 142 Q 143 40 64 112" stroke="rgb(137,163,176)" stroke-width="1" fill="none" stroke-opacity="1" />
<path d="M104 60 Q 101 165 12 114" stroke="rgb(105,135,151)" stroke-width="1" fill="none" stroke-opacity="1" />
<line x1="107" y1="53" x2="96" y2="147" stroke="rgb(110,129,139)" stroke-width="1" fill="none" stroke-opacity="1" />
<path d="M19 147 Q 212 45 18 101" stroke="rgb(111,144,161)" stroke-width="1" fill="none" stroke-opacity="1" />
<path d="M215 93 Q 46 0 27 208" stroke="rgb(81,110,125)" stroke-width="1" fill="none" stroke-opacity="1" />
<path d="M23 139 Q 167 163 201 48" stroke="rgb(103,125,138)" stroke-width="1" fill="none" stroke-opacity="1" />
<path d="M64 77 Q 140 230 47 44" stroke="rgb(129,158,174)" stroke-width="1" fill="none" stroke-opacity="1" />
<line x1="211" y1="87" x2="223" y2="174" stroke="rgb(123,162,180)" stroke-width="1" fill="none" stroke-opacity="1" />
<path d="M48 101 Q 252 191 2 83" stroke="rgb(129,161,177)" stroke-width="1" fill="none" stroke-opacity="1" />
<path d="M222 148 Q 60 16 33 171" stroke="rgb(105,142,161)" stroke-width="1" fill="none" stroke-opacity="1" />
<line x1="31" y1="121" x2="234" y2="125" stroke="rgb(112,143,159)" stroke-width="1" fill="none" stroke-opacity="1" />
<line x1="54" y1="196" x2="78" y2="62" stroke="rgb(99,135,154)" stroke-width="1" fill="none" stroke-opacity="1" />
<path d="M232 134 Q 69 129 96 140" stroke="rgb(131,154,166)" stroke-width="1" fill="none" stroke-opacity="1" />
<path d="M216 171 Q 253 9 58 168" stroke="rgb(142,169,182)" stroke-width="1" fill="none" stroke-opacity="1" />
<path d="M18 150 Q 219 90 151 53" stroke="rgb(102,134,151)" stroke-width="1" fill="none" stroke-opacity="1" />
<line x1="74" y1="66" x2="109" y2="144" stroke="rgb(122,153,169)" stroke-width="1" fill="none" stroke-opacity="1" />
<path d="M221 109 Q 252 121 1 154" stroke="rgb(105,131,145)" stroke-width="1" fill="none" stroke-opacity="1" />
<path d="M232 145 Q 180 37 107 174" stroke="rgb(110,138,152)" stroke-width="1" fill="none" stroke-opacity="1" />
<path d="M22 134 Q 193 27 236 225" stroke="rgb(99,127,142)" stroke-width="1" fill="none" stroke-opacity="1" />
<path d="M172 100 Q 233 8 124 176" stroke="rgb(107,141,159)" stroke-width="1" fill="none" stroke-opacity="1" />
<path d="M186 59 Q 245 137 6 85" stroke="rgb(112,139,154)" stroke-width="1" fill="none" stroke-opacity="1" />
<path d="M222 115 Q 18 13 187 178" stroke="rgb(136,160,173)" stroke-width="1" fill="none" stroke-opacity="1" />
<path d="M30 119 Q 54 219 168 47" stroke="rgb(112,137,150)" stroke-width="1" fill="none" stroke-opacity="1" />
<line x1="100" y1="60" x2="95" y2="145" stroke="rgb(114,138,150)" stroke-width="1" fill="none" stroke-opacity="1" />
<path d="M236 163 Q 155 0 230 199" stroke="rgb(107,149,170)" stroke-width="1" fill="none" stroke-opacity="1" />
<path d="M174 94 Q 17 168 246 115" stroke="rgb(141,160,170)" stroke-width="1" fill="none" stroke-opacity="1" />
<line x1="128" y1="75" x2="120" y2="148" stroke="rgb(134,159,171)" stroke-width="1" fill="none" stroke-opacity="1" />
<line x1="13" y1="180" x2="66" y2="183" stroke="rgb(116,160,182)" stroke-width="1" fill="none" stroke-opacity="1" />
<path d="M154 161 Q 45 51 248 133" stroke="rgb(107,130,142)" stroke-width="1" fill="none" stroke-opacity="1" />
<path d="M68 178 Q 11 228 66 54" stroke="rgb(113,154,174)" stroke-width="1" fill="none" stroke-opacity="1" />
<line x1="36" y1="110" x2="233" y2="133" stroke="rgb(104,135,151)" stroke-width="1" fill="none" stroke-opacity="1" />
<path d="M130 94 Q 20 9 182 191" stroke="rgb(105,128,139)" stroke-width="1" fill="none" stroke-opacity="1" />
<path d="M13 168 Q 154 118 54 118" stroke="rgb(88,118,133)" stroke-width="1" fill="none" stroke-opacity="1" />
<path d="M112 77 Q 31 173 32 79" stroke="rgb(82,108,121)" stroke-width="1" fill="none" stroke-opacity="1" />
<path d="M204 81 Q 131 115 62 54" stroke="rgb(96,131,150)" stroke-width="1" fill="none" stroke-opacity="1" />
<path d="M234 164 Q 128 34 226 98" stroke="rgb(98,137,157)" stroke-width="1" fill="none" stroke-opacity="1" />
<path d="M17 175 Q 218 20 111 126" stroke="rgb(115,149,166)" stroke-width="1" fill="none" stroke-opacity="1" />
<line x1="32" y1="116" x2="231" y2="124" stroke="rgb(103,135,151)" stroke-width="1" fill="none" stroke-opacity="1" />
<line x1="74" y1="67" x2="33" y2="201" stroke="rgb(107,144,164)" stroke-width="1" fill="none" stroke-opacity="1" />
<line x1="28" y1="129" x2="199" y2="85" stroke="rgb(111,143,161)" stroke-width="1" fill="none" stroke-opacity="1" />
<path d="M21 159 Q 26 177 255 73" stroke="rgb(100,115,126)" stroke-width="1" fill="none" stroke-opacity="1" />
<path d="M166 143 Q 71 136 98 49" stroke="rgb(123,149,163)" stroke-width="1" fill="none" stroke-opacity="1" />
<line x1="71" y1="69" x2="24" y2="191" stroke="rgb(127,167,186)" stroke-width="1" fill="none" stroke-opacity="1" />
<path d="M63 77 Q 255 102 123 138" stroke="rgb(102,132,148)" stroke-width="1" fill="none" stroke-opacity="1" />
<path d="M207 90 Q 39 132 27 114" stroke="rgb(110,134,148)" stroke-width="1" fill="none" stroke-opacity="1" />
<line x1="124" y1="75" x2="129" y2="150" stroke="rgb(131,158,171)" stroke-width="1" fill="none" stroke-opacity="1" />
<path d="M117 75 Q 46 181 5 187" stroke="rgb(124,155,171)" stroke-width="1" fill="none" stroke-opacity="1" />
<path d="M240 157 Q 74 85 219 70" stroke="rgb(87,121,140)" stroke-width="1" fill="none" stroke-opacity="1" />
<path d="M231 40 Q 58 136 1 187" stroke="rgb(82,107,120)" stroke-width="1" fill="none" stroke-opacity="1" />
<line x1="198" y1="160" x2="243" y2="156" stroke="rgb(122,164,184)" stroke-width="1" fill="none" stroke-opacity="1" />
<path d="M8 206 Q 162 44 33 97" stroke="rgb(91,121,138)" stroke-width="1" fill="none" stroke-opacity="1" />
<path d="M239 143 Q 86 58 178 170" stroke="rgb(125,147,159)" stroke-width="1" fill="none" stroke-opacity="1" />
<path d="M237 160 Q 213 34 52 74" stroke="rgb(67,94,109)" stroke-width="1" fill="none" stroke-opacity="1" />
<path d="M150 78 Q 42 104 100 97" stroke="rgb(129,160,175)" stroke-width="1" fill="none" stroke-opacity="1" />
<path d="M60 81 Q 146 126 85 50" stroke="rgb(111,138,153)" stroke-width="1" fill="none" stroke-opacity="1" />
<path d="M238 102 Q 13 183 34 104" stroke="rgb(97,122,135)" stroke-width="1" fill="none" stroke-opacity="1" />
<path d="M189 141 Q 151 23 160 77" stroke="rgb(73,99,117)" stroke-width="1" fill="none" stroke-opacity="1" />
<line x1="77" y1="64" x2="97" y2="143" stroke="rgb(118,148,165)" stroke-width="1" fill="none" stroke-opacity="1" />
<path d="M215 166 Q 148 25 249 139" stroke="rgb(96,135,156)" stroke-width="1" fill="none" stroke-opacity="1" />
<path d="M244 152 Q 9 84 246 77" stroke="rgb(86,118,136)" stroke-width="1" fill="none" stroke-opacity="1" />
<line x1="41" y1="109" x2="235" y2="120" stroke="rgb(110,128,142)" stroke-width="1" fill="none" stroke-opacity="1" />
<path d="M222 163 Q 212 36 244 185" stroke="rgb(103,146,167)" stroke-width="1" fill="none" stroke-opacity="1" />
<path d="M16 166 Q 134 86 220 78" stroke="rgb(103,133,150)" stroke-width="1" fill="none" stroke-opacity="1" />
<line x1="77" y1="71" x2="115" y2="147" stroke="rgb(111,140,155)" stroke-width="1" fill="none" stroke-opacity="1" />
<path d="M13 182 Q 150 32 146 173" stroke="rgb(128,154,167)" stroke-width="1" fill="none" stroke-opacity="1" />
<line x1="67" y1="73" x2="157" y2="83" stroke="rgb(121,150,165)" stroke-width="1" fill="none" stroke-opacity="1" />
<path d="M232 127 Q 113 135 188 35" stroke="rgb(83,116,133)" stroke-width="1" fill="none" stroke-opacity="1" />
<line x1="10" y1="177" x2="67" y2="172" stroke="rgb(94,131,152)" stroke-width="1" fill="none" stroke-opacity="1" />
<path d="M27 122 Q 112 100 255 122" stroke="rgb(112,135,148)" stroke-width="1" fill="none" stroke-opacity="1" />
<path d="M140 76 Q 74 146 176 69" stroke="rgb(129,159,175)" stroke-width="1" fill="none" stroke-opacity="1" />
<path d="M92 130 Q 23 23 251 136" stroke="rgb(95,129,147)" stroke-width="1" fill="none" stroke-opacity="1" />
<path d="M204 130 Q 155 0 221 115" stroke="rgb(104,146,167)" stroke-width="1" fill="none" stroke-opacity="1" />
<line x1="0" y1="142" x2="0" y2="142" stroke="rgb(0,0,0)" stroke-width="1" fill="none" stroke-opacity="1" />
<path d="M137 76 Q 117 207 83 84" stroke="rgb(133,160,173)" stroke-width="1" fill="none" stroke-opacity="1" />
<line x1="77" y1="63" x2="51" y2="198" stroke="rgb(98,134,152)" stroke-width="1" fill="none" stroke-opacity="1" />
<line x1="197" y1="159" x2="243" y2="153" stroke="rgb(120,164,184)" stroke-width="1" fill="none" stroke-opacity="1" />
<line x1="53" y1="93" x2="226" y2="117" stroke="rgb(110,139,154)" stroke-width="1" fill="none" stroke-opacity="1" />
<path d="M216 102 Q 83 166 98 127" stroke="rgb(115,143,158)" stroke-width="1" fill="none" stroke-opacity="1" />
<path d="M47 157 Q 168 1 193 171" stroke="rgb(111,141,158)" stroke-width="1" fill="none" stroke-opacity="1" />
<line x1="197" y1="73" x2="231" y2="160" stroke="rgb(118,164,185)" stroke-width="1" fill="none" stroke-opacity="1" />
<line x1="31" y1="113" x2="201" y2="77" stroke="rgb(92,124,142)" stroke-width="1" fill="none" stroke-opacity="1" />
<line x1="93" y1="137" x2="157" y2="104" stroke="rgb(199,199,199)" stroke-width="1" fill="none" stroke-opacity="1" />
<line x1="155" y1="57" x2="214" y2="165" stroke="rgb(75,107,126)" stroke-width="1" fill="none" stroke-opacity="1" />
<path d="M83 102 Q 238 212 42 43" stroke="rgb(135,152,161)" stroke-width="1" fill="none" stroke-opacity="1" />
<line x1="31" y1="116" x2="197" y2="73" stroke="rgb(95,128,146)" stroke-width="1" fill="none" stroke-opacity="1" />
<path d="M235 155 Q 182 43 1 233" stroke="rgb(92,107,118)" stroke-width="1" fill="none" stroke-opacity="1" />
<path d="M184 122 Q 167 52 252 190" stroke="rgb(93,130,150)" stroke-width="1" fill="none" stroke-opacity="1" />
<line x1="255" y1="130" x2="256" y2="131" stroke="rgb(0,0,0)" stroke-width="1" fill="none" stroke-opacity="1" />
<path d="M67 75 Q 240 195 227 139" stroke="rgb(132,148,156)" stroke-width="1" fill="none" stroke-opacity="1" />
<line x1="45" y1="119" x2="164" y2="141" stroke="rgb(133,157,170)" stroke-width="1" fill="none" stroke-opacity="1" />
<line x1="140" y1="80" x2="132" y2="150" stroke="rgb(136,162,175)" stroke-width="1" fill="none" stroke-opacity="1" />
<path d="M32 193 Q 48 6 233 159" stroke="rgb(111,147,165)" stroke-width="1" fill="none" stroke-opacity="1" />
<path d="M94 79 Q 23 176 208 86" stroke="rgb(123,142,153)" stroke-width="1" fill="none" stroke-opacity="1" />
<line x1="154" y1="60" x2="228" y2="123" stroke="rgb(83,119,138)" stroke-width="1" fill="none" stroke-opacity="1" />
<path d="M44 139 Q 213 24 74 121" stroke="rgb(133,161,174)" stroke-width="1" fill="none" stroke-opacity="1" />
<path d="M108 98 Q 62 201 255 84" stroke="rgb(103,128,142)" stroke-width="1" fill="none" stroke-opacity="1" />
<path d="M220 104 Q 79 131 105 53" stroke="rgb(112,133,145)" stroke-width="1" fill="none" stroke-opacity="1" />
<path d="M29 123 Q 216 117 20 129" stroke="rgb(112,145,161)" stroke-width="1" fill="none" stroke-opacity="1" />
<path d="M61 119 Q 29 29 27 230" stroke="rgb(101,131,146)" stroke-width="1" fill="none" stroke-opacity="1" />
<path d="M200 102 Q 247 127 96 122" stroke="rgb(101,130,145)" stroke-width="1" fill="none" stroke-opacity="1" />
<line x1="136" y1="134" x2="209" y2="94" stroke="rgb(90,116,131)" stroke-width="1" fill="none" stroke-opacity="1" />
<line x1="45" y1="108" x2="152" y2="79" stroke="rgb(114,145,161)" stroke-width="1" fill="none" stroke-opacity="1" />
<line x1="196" y1="156" x2="243" y2="152" stroke="rgb(121,164,185)" stroke-width="1" fill="none" stroke-opacity="1" />
<line x1="185" y1="59" x2="223" y2="174" stroke="rgb(102,138,156)" stroke-width="1" fill="none" stroke-opacity="1" />
<line x1="181" y1="61" x2="224" y2="170" stroke="rgb(110,150,170)" stroke-width="1" fill="none" stroke-opacity="1" />
<line x1="31" y1="117" x2="20" y2="191" stroke="rgb(132,170,188)" stroke-width="1" fill="none" stroke-opacity="1" />
<line x1="231" y1="255" x2="233" y2="256" stroke="rgb(0,0,0)" stroke-width="1" fill="none" stroke-opacity="1" />
<path d="M88 131 Q 203 190 187 28" stroke="rgb(95,121,137)" stroke-width="1" fill="none" stroke-opacity="1" />
<line x1="73" y1="67" x2="33" y2="196" stroke="rgb(104,142,163)" stroke-width="1" fill="none" stroke-opacity="1" />
<line x1="79" y1="67" x2="57" y2="191" stroke="rgb(95,131,151)" stroke-width="1" fill="none" stroke-opacity="1" />
<line x1="61" y1="81" x2="149" y2="77" stroke="rgb(124,152,166)" stroke-width="1" fill="none" stroke-opacity="1" />
<line x1="205" y1="96" x2="203" y2="162" stroke="rgb(98,140,161)" stroke-width="1" fill="none" stroke-opacity="1" />
<line x1="35" y1="120" x2="23" y2="190" stroke="rgb(138,176,194)" stroke-width="1" fill="none" stroke-opacity="1" />
<line x1="186" y1="63" x2="161" y2="153" stroke="rgb(98,129,147)" stroke-width="1" fill="none" stroke-opacity="1" />
<line x1="59" y1="82" x2="49" y2="189" stroke="rgb(99,139,160)" stroke-width="1" fill="none" stroke-opacity="1" />
<line x1="117" y1="75" x2="204" y2="111" stroke="rgb(103,136,155)" stroke-width="1" fill="none" stroke-opacity="1" />
<line x1="38" y1="111" x2="165" y2="139" stroke="rgb(140,162,173)" stroke-width="1" fill="none" stroke-opacity="1" />
<path d="M49 99 Q 194 93 138 121" stroke="rgb(118,144,158)" stroke-width="1" fill="none" stroke-opacity="1" />
<path d="M167 144 Q 17 159 180 66" stroke="rgb(106,125,138)" stroke-width="1" fill="none" stroke-opacity="1" />
<path d="M119 83 Q 186 238 54 26" stroke="rgb(113,130,142)" stroke-width="1" fill="none" stroke-opacity="1" />
<path d="M106 53 Q 40 173 97 67" stroke="rgb(66,98,117)" stroke-width="1" fill="none" stroke-opacity="1" />
<path d="M165 140 Q 78 106 71 64" stroke="rgb(145,154,163)" stroke-width="1" fill="none" stroke-opacity="1" />
<path d="M188 62 Q 139 99 2 202" stroke="rgb(81,111,126)" stroke-width="1" fill="none" stroke-opacity="1" />
<line x1="191" y1="62" x2="162" y2="152" stroke="rgb(92,116,130)" stroke-width="1" fill="none" stroke-opacity="1" />
<line x1="53" y1="89" x2="149" y2="77" stroke="rgb(124,153,167)" stroke-width="1" fill="none" stroke-opacity="1" />
<line x1="131" y1="75" x2="143" y2="143" stroke="rgb(146,167,178)" stroke-width="1" fill="none" stroke-opacity="1" />
<line x1="58" y1="80" x2="101" y2="145" stroke="rgb(130,161,175)" stroke-width="1" fill="none" stroke-opacity="1" />
<line x1="70" y1="67" x2="15" y2="183" stroke="rgb(133,172,190)" stroke-width="1" fill="none" stroke-opacity="1" />
<path d="M38 111 Q 42 117 32 220" stroke="rgb(126,160,176)" stroke-width="1" fill="none" stroke-opacity="1" />
<line x1="116" y1="139" x2="165" y2="146" stroke="rgb(104,127,140)" stroke-width="1" fill="none" stroke-opacity="1" />
<path d="M128 138 Q 223 51 206 195" stroke="rgb(101,124,141)" stroke-width="1" fill="none" stroke-opacity="1" />
<line x1="197" y1="154" x2="237" y2="164" stroke="rgb(126,162,179)" stroke-width="1" fill="none" stroke-opacity="1" />
<line x1="25" y1="129" x2="31" y2="199" stroke="rgb(133,169,185)" stroke-width="1" fill="none" stroke-opacity="1" />
<line x1="193" y1="66" x2="224" y2="166" stroke="rgb(101,142,162)" stroke-width="1" fill="none" stroke-opacity="1" />
<line x1="32" y1="236" x2="32" y2="236" stroke="rgb(0,0,0)" stroke-width="1" fill="none" stroke-opacity="1" />
<line x1="74" y1="70" x2="36" y2="198" stroke="rgb(101,139,159)" stroke-width="1" fill="none" stroke-opacity="1" />
<line x1="140" y1="126" x2="242" y2="145" stroke="rgb(94,119,134)" stroke-width="1" fill="none" stroke-opacity="1" />
<line x1="211" y1="89" x2="233" y2="166" stroke="rgb(120,164,183)" stroke-width="1" fill="none" stroke-opacity="1" />
<path d="M153 142 Q 255 46 142 116" stroke="rgb(92,125,144)" stroke-width="1" fill="none" stroke-opacity="1" />
<line x1="188" y1="63" x2="224" y2="168" stroke="rgb(104,146,167)" stroke-width="1" fill="none" stroke-opacity="1" />
<line x1="235" y1="90" x2="235" y2="90" stroke="rgb(0,0,0)" stroke-width="1" fill="none" stroke-opacity="1" />
<line x1="14" y1="183" x2="67" y2="180" stroke="rgb(113,156,177)" stroke-width="1" fill="none" stroke-opacity="1" />
<line x1="228" y1="113" x2="51" y2="92" stroke="rgb(109,138,153)" stroke-width="1" fill="none" stroke-opacity="1" />
<path d="M141 83 Q 8 148 79 208" stroke="rgb(109,144,160)" stroke-width="1" fill="none" stroke-opacity="1" />
<line x1="231" y1="123" x2="77" y2="112" stroke="rgb(110,125,138)" stroke-width="1" fill="none" stroke-opacity="1" />
<path d="M168 115 Q 68 97 110 45" stroke="rgb(103,119,132)" stroke-width="1" fill="none" stroke-opacity="1" />
<line x1="155" y1="57" x2="229" y2="114" stroke="rgb(95,132,151)" stroke-width="1" fill="none" stroke-opacity="1" />
<line x1="249" y1="119" x2="248" y2="119" stroke="rgb(0,0,0)" stroke-width="1" fill="none" stroke-opacity="1" />
<line x1="49" y1="96" x2="150" y2="79" stroke="rgb(141,174,189)" stroke-width="1" fill="none" stroke-opacity="1" />
<path d="M37 124 Q 111 107 251 127" stroke="rgb(103,125,140)" stroke-width="1" fill="none" stroke-opacity="1" />
<line x1="70" y1="69" x2="100" y2="141" stroke="rgb(125,152,165)" stroke-width="1" fill="none" stroke-opacity="1" />
<line x1="139" y1="18" x2="140" y2="17" stroke="rgb(0,0,0)" stroke-width="1" fill="none" stroke-opacity="1" />
<line x1="201" y1="162" x2="242" y2="157" stroke="rgb(117,156,175)" stroke-width="1" fill="none" stroke-opacity="1" />
<line x1="33" y1="117" x2="203" y2="79" stroke="rgb(100,133,151)" stroke-width="1" fill="none" stroke-opacity="1" />
<line x1="255" y1="235" x2="255" y2="235" stroke="rgb(0,0,0)" stroke-width="1" fill="none" stroke-opacity="1" />
<path d="M31 170 Q 53 75 80 63" stroke="rgb(143,183,201)" stroke-width="1" fill="none" stroke-opacity="1" />
<path d="M226 109 Q 58 75 7 168" stroke="rgb(105,138,155)" stroke-width="1" fill="none" stroke-opacity="1" />
<path d="M27 153 Q 143 0 239 208" stroke="rgb(102,134,152)" stroke-width="1" fill="none" stroke-opacity="1" />
<line x1="111" y1="57" x2="33" y2="201" stroke="rgb(91,121,138)" stroke-width="1" fill="none" stroke-opacity="1" />
<line x1="107" y1="80" x2="162" y2="150" stroke="rgb(163,180,188)" stroke-width="1" fill="none" stroke-opacity="1" />
<line x1="196" y1="157" x2="240" y2="155" stroke="rgb(122,165,185)" stroke-width="1" fill="none" stroke-opacity="1" />
<line x1="255" y1="13" x2="256" y2="15" stroke="rgb(0,0,0)" stroke-width="1" fill="none" stroke-opacity="1" />
<line x1="80" y1="119" x2="35" y2="200" stroke="rgb(102,134,151)" stroke-width="1" fill="none" stroke-opacity="1" />
<line x1="226" y1="109" x2="225" y2="170" stroke="rgb(110,149,168)" stroke-width="1" fill="none" stroke-opacity="1" />
<line x1="187" y1="59" x2="232" y2="127" stroke="rgb(103,147,169)" stroke-width="1" fill="none" stroke-opacity="1" />
<line x1="187" y1="55" x2="161" y2="149" stroke="rgb(95,127,145)" stroke-width="1" fill="none" stroke-opacity="1" />
<path d="M20 188 Q 21 69 129 93" stroke="rgb(120,154,171)" stroke-width="1" fill="none" stroke-opacity="1" />
<line x1="103" y1="141" x2="154" y2="145" stroke="rgb(62,85,101)" stroke-width="1" fill="none" stroke-opacity="1" />
<path d="M41 127 Q 140 134 156 120" stroke="rgb(129,149,160)" stroke-width="1" fill="none" stroke-opacity="1" />
<line x1="22" y1="139" x2="29" y2="193" stroke="rgb(118,159,177)" stroke-width="1" fill="none" stroke-opacity="1" />
<path d="M210 88 Q 148 101 164 160" stroke="rgb(94,123,141)" stroke-width="1" fill="none" stroke-opacity="1" />
<path d="M68 120 Q 228 135 145 127" stroke="rgb(124,148,162)" stroke-width="1" fill="none" stroke-opacity="1" />
<line x1="23" y1="136" x2="68" y2="130" stroke="rgb(113,158,179)" stroke-width="1" fill="none" stroke-opacity="1" />
<path d="M118 74 Q 125 224 214 53" stroke="rgb(118,143,157)" stroke-width="1" fill="none" stroke-opacity="1" />
<line x1="170" y1="64" x2="163" y2="141" stroke="rgb(80,109,126)" stroke-width="1" fill="none" stroke-opacity="1" />
<line x1="55" y1="87" x2="113" y2="57" stroke="rgb(92,123,141)" stroke-width="1" fill="none" stroke-opacity="1" />
<path d="M146 82 Q 124 120 51 61" stroke="rgb(120,152,168)" stroke-width="1" fill="none" stroke-opacity="1" />
<line x1="33" y1="25" x2="33" y2="26" stroke="rgb(0,0,0)" stroke-width="1" fill="none" stroke-opacity="1" />
<path d="M117 112 Q 29 16 40 216" stroke="rgb(127,160,176)" stroke-width="1" fill="none" stroke-opacity="1" />
<line x1="165" y1="137" x2="65" y2="122" stroke="rgb(152,170,179)" stroke-width="1" fill="none" stroke-opacity="1" />
<path d="M42 110 Q 247 63 185 82" stroke="rgb(93,126,145)" stroke-width="1" fill="none" stroke-opacity="1" />
<line x1="76" y1="64" x2="50" y2="196" stroke="rgb(100,137,156)" stroke-width="1" fill="none" stroke-opacity="1" />
<line x1="122" y1="94" x2="22" y2="158" stroke="rgb(117,149,165)" stroke-width="1" fill="none" stroke-opacity="1" />
<line x1="92" y1="133" x2="125" y2="142" stroke="rgb(135,142,146)" stroke-width="1" fill="none" stroke-opacity="1" />
<line x1="111" y1="147" x2="143" y2="149" stroke="rgb(59,86,102)" stroke-width="1" fill="none" stroke-opacity="1" />
<path d="M91 117 Q 189 61 233 149" stroke="rgb(105,136,153)" stroke-width="1" fill="none" stroke-opacity="1" />
<line x1="148" y1="255" x2="148" y2="255" stroke="rgb(0,0,0)" stroke-width="1" fill="none" stroke-opacity="1" />
<line x1="225" y1="105" x2="236" y2="164" stroke="rgb(92,132,153)" stroke-width="1" fill="none" stroke-opacity="1" />
<line x1="200" y1="160" x2="231" y2="160" stroke="rgb(133,176,196)" stroke-width="1" fill="none" stroke-opacity="1" />
<line x1="237" y1="63" x2="236" y2="64" stroke="rgb(0,0,0)" stroke-width="1" fill="none" stroke-opacity="1" />
<line x1="213" y1="92" x2="226" y2="167" stroke="rgb(120,163,182)" stroke-width="1" fill="none" stroke-opacity="1" />
<path d="M13 179 Q 66 94 147 70" stroke="rgb(111,146,164)" stroke-width="1" fill="none" stroke-opacity="1" />
<line x1="186" y1="63" x2="189" y2="140" stroke="rgb(87,118,137)" stroke-width="1" fill="none" stroke-opacity="1" />
<path d="M156 99 Q 194 156 203 66" stroke="rgb(87,120,140)" stroke-width="1" fill="none" stroke-opacity="1" />
<path d="M164 60 Q 194 92 156 85" stroke="rgb(71,105,125)" stroke-width="1" fill="none" stroke-opacity="1" />
<line x1="31" y1="115" x2="65" y2="194" stroke="rgb(93,130,147)" stroke-width="1" fill="none" stroke-opacity="1" />
<path d="M152 123 Q 68 177 249 80" stroke="rgb(115,145,161)" stroke-width="1" fill="none" stroke-opacity="1" />
<path d="M208 134 Q 112 52 236 116" stroke="rgb(77,111,130)" stroke-width="1" fill="none" stroke-opacity="1" />
<line x1="69" y1="77" x2="186" y2="76" stroke="rgb(88,111,123)" stroke-width="1" fill="none" stroke-opacity="1" />
<line x1="56" y1="89" x2="44" y2="191" stroke="rgb(98,139,161)" stroke-width="1" fill="none" stroke-opacity="1" />
<line x1="212" y1="97" x2="227" y2="161" stroke="rgb(126,172,193)" stroke-width="1" fill="none" stroke-opacity="1" />
<line x1="34" y1="118" x2="22" y2="191" stroke="rgb(135,172,190)" stroke-width="1" fill="none" stroke-opacity="1" />
<line x1="114" y1="83" x2="218" y2="100" stroke="rgb(85,119,138)" stroke-width="1" fill="none" stroke-opacity="1" />
<line x1="196" y1="176" x2="197" y2="175" stroke="rgb(0,0,0)" stroke-width="1" fill="none" stroke-opacity="1" />
<line x1="216" y1="103" x2="240" y2="154" stroke="rgb(90,131,151)" stroke-width="1" fill="none" stroke-opacity="1" />
<line x1="54" y1="108" x2="65" y2="195" stroke="rgb(88,128,148)" stroke-width="1" fill="none" stroke-opacity="1" /></svg>