<?xml version="1.0" standalone="no"?>
<svg xmlns="http://www.w3.org/2000/svg" version="1.2" baseProfile="tiny" width="256" height="256">
<polygon points="92,255 87,132 255,211" fill="rgb(141,158,172)" fill-opacity="1"/>
<polygon points="129,214 113,153 254,178" fill="rgb(78,108,135)" fill-opacity="1"/>
<polygon points="141,244 246,213 208,159" fill="rgb(165,188,207)" fill-opacity="1"/>
<polygon points="113,174 111,48 170,27" fill="rgb(125,151,175)" fill-opacity="1"/>
<polygon points="128,246 91,229 92,255" fill="rgb(4,5,4)" fill-opacity="1"/>
<polygon points="79,7 79,7 78,7" fill="rgb(0,0,0)" fill-opacity="1"/>
<polygon points="77,214 94,157 159,239" fill="rgb(213,224,232)" fill-opacity="1"/>
<polygon points="175,166 122,151 123,193" fill="rgb(3,4,6)" fill-opacity="1"/>
<polygon points="93,225 97,152 130,106" fill="rgb(235,241,243)" fill-opacity="1"/>
<polygon points="233,205 205,229 95,229" fill="rgb(224,229,231)" fill-opacity="1"/>
<polygon points="196,161 117,201 236,189" fill="rgb(118,164,205)" fill-opacity="1"/>
<polygon points="234,193 164,172 220,167" fill="rgb(128,176,220)" fill-opacity="1"/>
<polygon points="149,82 121,117 98,22" fill="rgb(114,142,169)" fill-opacity="1"/>
<polygon points="209,162 120,205 165,172" fill="rgb(111,160,203)" fill-opacity="1"/>
<polygon points="194,230 117,240 89,219" fill="rgb(213,215,215)" fill-opacity="1"/>
<polygon points="79,219 86,201 29,200" fill="rgb(99,115,143)" fill-opacity="1"/>
<polygon points="158,154 158,153 158,153" fill="rgb(0,0,0)" fill-opacity="1"/>
<polygon points="157,237 233,189 219,223" fill="rgb(222,226,226)" fill-opacity="1"/>
<polygon points="161,98 159,97 160,98" fill="rgb(0,0,0)" fill-opacity="1"/>
<polygon points="127,105 165,52 104,53" fill="rgb(126,155,183)" fill-opacity="1"/>
<polygon points="233,190 155,219 224,172" fill="rgb(149,191,228)" fill-opacity="1"/>
<polygon points="132,82 135,61 141,73" fill="rgb(71,50,68)" fill-opacity="1"/>
<polygon points="111,169 135,217 113,199" fill="rgb(123,175,222)" fill-opacity="1"/>
<polygon points="88,171 85,207 144,232" fill="rgb(239,244,245)" fill-opacity="1"/>
<polygon points="111,129 126,108 113,92" fill="rgb(11,16,20)" fill-opacity="1"/>
<polygon points="138,64 165,44 157,10" fill="rgb(198,201,202)" fill-opacity="1"/>
<polygon points="170,167 125,151 163,173" fill="rgb(1,2,2)" fill-opacity="1"/>
<polygon points="131,96 111,95 113,105" fill="rgb(12,15,19)" fill-opacity="1"/>
<polygon points="40,204 76,215 23,179" fill="rgb(94,117,158)" fill-opacity="1"/>
<polygon points="110,255 112,268 113,260" fill="rgb(0,0,0)" fill-opacity="1"/>
<polygon points="135,212 188,195 122,191" fill="rgb(93,128,159)" fill-opacity="1"/>
<polygon points="161,21 142,75 165,46" fill="rgb(184,187,188)" fill-opacity="1"/>
<polygon points="68,255 75,265 67,257" fill="rgb(0,0,0)" fill-opacity="1"/>
<polygon points="10,65 10,66 10,66" fill="rgb(0,0,0)" fill-opacity="1"/>
<polygon points="114,184 137,99 114,155" fill="rgb(124,175,220)" fill-opacity="1"/>
<polygon points="27,185 40,128 21,149" fill="rgb(63,90,123)" fill-opacity="1"/>
<polygon points="100,148 114,202 86,182" fill="rgb(242,246,247)" fill-opacity="1"/>
<polygon points="255,211 225,219 236,200" fill="rgb(7,7,7)" fill-opacity="1"/>
<polygon points="228,190 170,217 126,214" fill="rgb(137,185,227)" fill-opacity="1"/>
<polygon points="173,166 202,163 133,166" fill="rgb(9,13,16)" fill-opacity="1"/>
<polygon points="46,205 53,211 90,217" fill="rgb(178,180,184)" fill-opacity="1"/>
<polygon points="140,45 117,94 109,46" fill="rgb(133,176,214)" fill-opacity="1"/>
<polygon points="107,140 89,217 113,214" fill="rgb(240,244,245)" fill-opacity="1"/>
<polygon points="214,201 175,216 231,184" fill="rgb(127,179,224)" fill-opacity="1"/>
<polygon points="199,163 175,169 145,183" fill="rgb(118,171,217)" fill-opacity="1"/>
<polygon points="148,183 199,163 209,184" fill="rgb(118,171,219)" fill-opacity="1"/>
<polygon points="88,192 123,229 160,230" fill="rgb(239,244,245)" fill-opacity="1"/>
<polygon points="200,186 160,188 160,175" fill="rgb(119,172,221)" fill-opacity="1"/>
<polygon points="229,212 207,228 128,241" fill="rgb(198,199,198)" fill-opacity="1"/>
<polygon points="95,21 107,30 119,61" fill="rgb(187,193,199)" fill-opacity="1"/>
<polygon points="178,226 231,209 232,189" fill="rgb(235,240,240)" fill-opacity="1"/>
<polygon points="125,111 107,138 108,176" fill="rgb(243,246,247)" fill-opacity="1"/>
<polygon points="203,220 138,232 225,200" fill="rgb(239,244,245)" fill-opacity="1"/>
<polygon points="112,80 114,126 111,70" fill="rgb(15,15,17)" fill-opacity="1"/>
<polygon points="204,229 219,223 222,221" fill="rgb(53,54,53)" fill-opacity="1"/>
<polygon points="153,71 121,107 136,115" fill="rgb(88,129,167)" fill-opacity="1"/>
<polygon points="83,202 80,201 84,192" fill="rgb(28,31,41)" fill-opacity="1"/>
<polygon points="180,224 128,216 161,230" fill="rgb(240,244,245)" fill-opacity="1"/>
<polygon points="201,211 144,223 191,223" fill="rgb(239,244,245)" fill-opacity="1"/>
<polygon points="234,183 225,173 255,178" fill="rgb(2,3,4)" fill-opacity="1"/>
<polygon points="174,235 193,230 136,245" fill="rgb(50,50,50)" fill-opacity="1"/>
<polygon points="88,171 103,140 87,133" fill="rgb(4,4,4)" fill-opacity="1"/>
<polygon points="220,180 162,207 205,201" fill="rgb(158,198,232)" fill-opacity="1"/>
<polygon points="91,228 108,240 91,223" fill="rgb(33,32,33)" fill-opacity="1"/>
<polygon points="230,210 212,225 232,198" fill="rgb(210,212,211)" fill-opacity="1"/>
<polygon points="91,242 104,245 92,225" fill="rgb(0,0,0)" fill-opacity="1"/>
<polygon points="117,203 112,166 122,133" fill="rgb(125,177,223)" fill-opacity="1"/>
<polygon points="185,165 122,157 120,180" fill="rgb(1,3,3)" fill-opacity="1"/>
<polygon points="130,62 163,51 158,63" fill="rgb(175,183,189)" fill-opacity="1"/>
<polygon points="229,100 229,99 229,99" fill="rgb(0,0,0)" fill-opacity="1"/>
<polygon points="195,229 104,234 136,242" fill="rgb(198,199,198)" fill-opacity="1"/>
<polygon points="126,121 145,90 116,162" fill="rgb(123,174,220)" fill-opacity="1"/>
<polygon points="87,217 63,213 86,210" fill="rgb(182,183,184)" fill-opacity="1"/>
<polygon points="105,235 90,221 126,241" fill="rgb(200,201,200)" fill-opacity="1"/>
<polygon points="198,189 176,200 210,181" fill="rgb(62,82,100)" fill-opacity="1"/>
<polygon points="111,186 119,164 120,186" fill="rgb(118,172,220)" fill-opacity="1"/>
<polygon points="168,32 156,11 167,36" fill="rgb(18,18,18)" fill-opacity="1"/>
<polygon points="96,210 125,229 96,222" fill="rgb(219,222,222)" fill-opacity="1"/>
<polygon points="122,187 175,168 121,180" fill="rgb(4,7,9)" fill-opacity="1"/>
<polygon points="107,65 117,70 119,62" fill="rgb(203,206,207)" fill-opacity="1"/>
<polygon points="175,198 193,190 134,189" fill="rgb(104,148,186)" fill-opacity="1"/>
<polygon points="209,160 204,162 213,165" fill="rgb(14,7,23)" fill-opacity="1"/>
<polygon points="140,57 141,83 149,76" fill="rgb(108,149,185)" fill-opacity="1"/>
<polygon points="148,207 180,198 156,206" fill="rgb(61,80,98)" fill-opacity="1"/>
<polygon points="130,191 162,203 149,182" fill="rgb(98,134,166)" fill-opacity="1"/>
<polygon points="118,204 175,212 143,218" fill="rgb(123,176,223)" fill-opacity="1"/>
<polygon points="107,236 99,230 116,239" fill="rgb(195,196,195)" fill-opacity="1"/>
<polygon points="114,187 123,209 141,214" fill="rgb(120,174,222)" fill-opacity="1"/>
<polygon points="126,45 131,42 146,77" fill="rgb(119,172,220)" fill-opacity="1"/>
<polygon points="192,231 190,231 208,228" fill="rgb(42,42,42)" fill-opacity="1"/>
<polygon points="85,204 109,193 91,221" fill="rgb(239,244,245)" fill-opacity="1"/>
<polygon points="128,116 92,199 90,169" fill="rgb(244,247,248)" fill-opacity="1"/>
<polygon points="131,94 127,67 111,70" fill="rgb(116,167,212)" fill-opacity="1"/>
<polygon points="137,232 113,225 101,232" fill="rgb(205,207,206)" fill-opacity="1"/>
<polygon points="123,182 127,173 129,170" fill="rgb(39,39,39)" fill-opacity="1"/>
<polygon points="9,207 10,208 10,208" fill="rgb(0,0,0)" fill-opacity="1"/>
<polygon points="85,200 86,181 86,210" fill="rgb(240,243,244)" fill-opacity="1"/>
<polygon points="124,154 124,192 163,162" fill="rgb(0,0,0)" fill-opacity="1"/>
<polygon points="167,200 159,196 136,185" fill="rgb(96,129,158)" fill-opacity="1"/>
<polygon points="88,166 116,123 99,148" fill="rgb(25,25,25)" fill-opacity="1"/></svg>