<?xml version="1.0" standalone="no"?>
<svg xmlns="http://www.w3.org/2000/svg" version="1.2" baseProfile="tiny" width="256" height="256">
<polygon points="104,206 4,11 217,77" fill="rgb(147,123,132)" fill-opacity="1"/>
<polygon points="202,95 201,164 241,149" fill="rgb(171,168,170)" fill-opacity="1"/>
<polygon points="42,188 103,131 67,240" fill="rgb(130,117,126)" fill-opacity="1"/>
<polygon points="86,90 25,108 75,18" fill="rgb(62,64,71)" fill-opacity="1"/>
<polygon points="185,104 114,33 216,79" fill="rgb(32,42,50)" fill-opacity="1"/>
<polygon points="207,236 97,90 246,233" fill="rgb(127,115,129)" fill-opacity="1"/>
<polygon points="104,44 82,77 61,25" fill="rgb(53,86,110)" fill-opacity="1"/>
<polygon points="172,176 65,174 121,33" fill="rgb(206,167,178)" fill-opacity="1"/>
<polygon points="32,104 35,73 54,108" fill="rgb(196,179,182)" fill-opacity="1"/>
<polygon points="127,57 195,13 192,51" fill="rgb(53,86,112)" fill-opacity="1"/>
<polygon points="9,13 15,51 69,30" fill="rgb(81,74,77)" fill-opacity="1"/>
<polygon points="164,168 121,34 157,80" fill="rgb(211,163,175)" fill-opacity="1"/>
<polygon points="74,89 197,183 79,161" fill="rgb(207,155,169)" fill-opacity="1"/>
<polygon points="88,175 104,206 130,178" fill="rgb(8,5,6)" fill-opacity="1"/>
<polygon points="113,39 156,81 83,84" fill="rgb(238,217,220)" fill-opacity="1"/>
<polygon points="52,190 33,226 72,236" fill="rgb(42,70,91)" fill-opacity="1"/>
<polygon points="36,226 88,200 87,222" fill="rgb(49,86,114)" fill-opacity="1"/>
<polygon points="184,14 163,33 217,37" fill="rgb(51,87,112)" fill-opacity="1"/>
<polygon points="70,204 52,195 61,215" fill="rgb(21,25,27)" fill-opacity="1"/>
<polygon points="173,174 193,174 198,212" fill="rgb(202,192,195)" fill-opacity="1"/>
<polygon points="224,161 178,135 244,133" fill="rgb(168,169,171)" fill-opacity="1"/>
<polygon points="19,44 39,72 76,54" fill="rgb(182,182,189)" fill-opacity="1"/>
<polygon points="105,175 89,179 62,122" fill="rgb(144,89,102)" fill-opacity="1"/>
<polygon points="150,76 131,44 183,47" fill="rgb(59,91,117)" fill-opacity="1"/>
<polygon points="81,32 28,44 66,25" fill="rgb(102,101,112)" fill-opacity="1"/>
<polygon points="100,109 111,115 85,153" fill="rgb(231,230,233)" fill-opacity="1"/>
<polygon points="127,39 59,50 59,55" fill="rgb(54,76,94)" fill-opacity="1"/>
<polygon points="90,97 92,82 116,108" fill="rgb(229,203,207)" fill-opacity="1"/>
<polygon points="39,97 85,89 59,60" fill="rgb(5,4,5)" fill-opacity="1"/>
<polygon points="44,184 85,161 52,198" fill="rgb(218,202,206)" fill-opacity="1"/>
<polygon points="138,43 130,102 117,41" fill="rgb(242,224,226)" fill-opacity="1"/>
<polygon points="104,168 94,147 152,178" fill="rgb(191,189,197)" fill-opacity="1"/>
<polygon points="144,73 134,48 126,92" fill="rgb(251,226,230)" fill-opacity="1"/>
<polygon points="210,144 211,161 218,152" fill="rgb(14,14,14)" fill-opacity="1"/>
<polygon points="98,106 110,119 141,115" fill="rgb(199,203,211)" fill-opacity="1"/>
<polygon points="138,119 148,149 163,136" fill="rgb(220,222,227)" fill-opacity="1"/>
<polygon points="70,55 76,25 68,24" fill="rgb(48,81,106)" fill-opacity="1"/>
<polygon points="133,90 210,103 144,116" fill="rgb(214,145,160)" fill-opacity="1"/>
<polygon points="141,116 155,140 131,117" fill="rgb(235,236,239)" fill-opacity="1"/>
<polygon points="195,188 209,226 245,221" fill="rgb(38,59,74)" fill-opacity="1"/>
<polygon points="142,64 170,69 187,22" fill="rgb(43,82,110)" fill-opacity="1"/>
<polygon points="86,179 81,201 67,182" fill="rgb(5,5,5)" fill-opacity="1"/>
<polygon points="133,168 165,175 143,179" fill="rgb(152,99,111)" fill-opacity="1"/>
<polygon points="159,92 161,68 219,76" fill="rgb(3,3,4)" fill-opacity="1"/>
<polygon points="209,235 177,214 236,210" fill="rgb(51,84,109)" fill-opacity="1"/>
<polygon points="243,227 202,231 230,204" fill="rgb(72,107,134)" fill-opacity="1"/>
<polygon points="31,92 87,113 39,105" fill="rgb(236,199,206)" fill-opacity="1"/>
<polygon points="34,42 38,88 56,45" fill="rgb(196,195,202)" fill-opacity="1"/>
<polygon points="126,108 94,99 144,103" fill="rgb(227,202,206)" fill-opacity="1"/>
<polygon points="162,174 188,213 176,181" fill="rgb(13,13,14)" fill-opacity="1"/></svg>