<?xml version="1.0" standalone="no"?>
<svg xmlns="http://www.w3.org/2000/svg" version="1.2" baseProfile="tiny" width="256" height="256">
<polygon points="53,207 145,0 178,188" fill="rgb(178,146,167)" fill-opacity="1"/>
<polygon points="205,14 181,118 59,27" fill="rgb(165,135,154)" fill-opacity="1"/>
<polygon points="141,106 28,125 66,88" fill="rgb(177,149,168)" fill-opacity="1"/>
<polygon points="186,221 116,110 65,159" fill="rgb(200,164,191)" fill-opacity="1"/>
<polygon points="186,220 132,179 159,221" fill="rgb(127,106,126)" fill-opacity="1"/>
<polygon points="114,114 164,106 171,149" fill="rgb(60,53,59)" fill-opacity="1"/>
<polygon points="54,243 84,179 92,239" fill="rgb(183,148,172)" fill-opacity="1"/>
<polygon points="59,132 43,124 83,98" fill="rgb(175,146,166)" fill-opacity="1"/>
<polygon points="164,219 176,168 154,124" fill="rgb(174,142,165)" fill-opacity="1"/>
<polygon points="159,115 163,40 220,95" fill="rgb(152,123,141)" fill-opacity="1"/>
<polygon points="74,223 69,149 165,155" fill="rgb(214,175,202)" fill-opacity="1"/>
<polygon points="190,80 168,112 95,96" fill="rgb(205,165,190)" fill-opacity="1"/>
<polygon points="70,164 108,102 155,166" fill="rgb(222,182,211)" fill-opacity="1"/>
<polygon points="111,23 190,11 125,33" fill="rgb(34,28,32)" fill-opacity="1"/>
<polygon points="82,16 67,51 119,25" fill="rgb(188,156,175)" fill-opacity="1"/>
<polygon points="187,96 174,115 197,101" fill="rgb(16,13,15)" fill-opacity="1"/>
<polygon points="62,95 95,95 159,160" fill="rgb(219,180,208)" fill-opacity="1"/>
<polygon points="146,191 126,196 151,197" fill="rgb(14,12,14)" fill-opacity="1"/>
<polygon points="209,36 104,80 126,32" fill="rgb(202,169,191)" fill-opacity="1"/>
<polygon points="147,177 162,221 185,212" fill="rgb(152,127,151)" fill-opacity="1"/>
<polygon points="71,197 72,163 146,167" fill="rgb(226,186,214)" fill-opacity="1"/>
<polygon points="57,233 79,241 85,183" fill="rgb(196,158,184)" fill-opacity="1"/>
<polygon points="164,195 178,170 109,181" fill="rgb(182,147,170)" fill-opacity="1"/>
<polygon points="53,211 72,159 67,202" fill="rgb(15,11,13)" fill-opacity="1"/>
<polygon points="130,188 100,203 112,181" fill="rgb(177,143,166)" fill-opacity="1"/>
<polygon points="143,87 78,24 141,37" fill="rgb(211,174,200)" fill-opacity="1"/>
<polygon points="142,139 121,120 167,113" fill="rgb(43,42,44)" fill-opacity="1"/>
<polygon points="77,151 93,117 95,119" fill="rgb(16,12,14)" fill-opacity="1"/>
<polygon points="113,196 85,214 114,196" fill="rgb(60,48,56)" fill-opacity="1"/>
<polygon points="160,105 132,69 139,107" fill="rgb(226,184,215)" fill-opacity="1"/>
<polygon points="150,130 103,86 138,123" fill="rgb(55,51,55)" fill-opacity="1"/>
<polygon points="191,70 215,91 215,86" fill="rgb(128,103,119)" fill-opacity="1"/>
<polygon points="175,63 189,11 161,16" fill="rgb(177,144,166)" fill-opacity="1"/>
<polygon points="207,40 203,27 156,58" fill="rgb(157,129,147)" fill-opacity="1"/>
<polygon points="120,178 161,151 158,127" fill="rgb(222,181,213)" fill-opacity="1"/>
<polygon points="66,91 32,125 45,104" fill="rgb(132,115,124)" fill-opacity="1"/>
<polygon points="144,77 186,48 182,83" fill="rgb(112,88,97)" fill-opacity="1"/>
<polygon points="196,142 197,141 197,141" fill="rgb(0,0,0)" fill-opacity="1"/>
<polygon points="97,19 98,61 156,50" fill="rgb(222,184,211)" fill-opacity="1"/>
<polygon points="153,97 167,79 144,78" fill="rgb(186,124,126)" fill-opacity="1"/>
<polygon points="106,74 155,110 109,87" fill="rgb(216,177,206)" fill-opacity="1"/>
<polygon points="169,64 135,45 128,71" fill="rgb(195,161,183)" fill-opacity="1"/>
<polygon points="189,46 194,62 198,44" fill="rgb(21,19,20)" fill-opacity="1"/>
<polygon points="45,105 55,130 68,114" fill="rgb(225,190,211)" fill-opacity="1"/>
<polygon points="111,99 74,91 122,129" fill="rgb(227,186,215)" fill-opacity="1"/>
<polygon points="148,28 176,50 118,36" fill="rgb(221,186,207)" fill-opacity="1"/>
<polygon points="66,160 80,148 66,150" fill="rgb(143,115,133)" fill-opacity="1"/>
<polygon points="110,121 102,124 90,113" fill="rgb(149,122,140)" fill-opacity="1"/>
<polygon points="158,29 145,1 132,26" fill="rgb(5,5,5)" fill-opacity="1"/>
<polygon points="67,117 62,92 81,116" fill="rgb(88,83,85)" fill-opacity="1"/>
<polygon points="92,238 88,216 89,217" fill="rgb(62,50,58)" fill-opacity="1"/>
<polygon points="102,161 108,172 103,163" fill="rgb(115,95,109)" fill-opacity="1"/>
<polygon points="122,82 134,96 132,63" fill="rgb(125,93,101)" fill-opacity="1"/>
<polygon points="97,119 70,169 71,196" fill="rgb(228,190,214)" fill-opacity="1"/>
<polygon points="255,113 267,123 255,113" fill="rgb(0,0,0)" fill-opacity="1"/>
<polygon points="145,69 122,30 154,76" fill="rgb(166,139,156)" fill-opacity="1"/>
<polygon points="177,180 177,185 169,196" fill="rgb(41,35,40)" fill-opacity="1"/>
<polygon points="111,192 61,224 81,218" fill="rgb(179,144,167)" fill-opacity="1"/>
<polygon points="191,81 200,76 193,70" fill="rgb(34,32,32)" fill-opacity="1"/>
<polygon points="107,115 133,176 154,149" fill="rgb(224,183,214)" fill-opacity="1"/>
<polygon points="53,101 66,88 66,112" fill="rgb(110,103,105)" fill-opacity="1"/>
<polygon points="107,80 122,105 158,108" fill="rgb(224,183,213)" fill-opacity="1"/>
<polygon points="162,139 163,113 174,162" fill="rgb(6,5,5)" fill-opacity="1"/>
<polygon points="133,78 145,85 133,34" fill="rgb(222,185,210)" fill-opacity="1"/>
<polygon points="139,138 125,125 150,136" fill="rgb(59,57,58)" fill-opacity="1"/>
<polygon points="75,25 62,26 71,39" fill="rgb(22,18,21)" fill-opacity="1"/>
<polygon points="75,198 101,198 80,147" fill="rgb(229,190,215)" fill-opacity="1"/>
<polygon points="168,64 178,26 180,64" fill="rgb(176,143,165)" fill-opacity="1"/>
<polygon points="249,175 248,176 248,176" fill="rgb(0,0,0)" fill-opacity="1"/>
<polygon points="70,205 52,206 69,186" fill="rgb(3,3,3)" fill-opacity="1"/>
<polygon points="75,91 126,127 63,95" fill="rgb(228,188,216)" fill-opacity="1"/>
<polygon points="165,152 142,191 119,195" fill="rgb(186,150,174)" fill-opacity="1"/>
<polygon points="72,33 92,46 69,47" fill="rgb(170,137,158)" fill-opacity="1"/>
<polygon points="255,255 264,239 260,259" fill="rgb(0,0,0)" fill-opacity="1"/>
<polygon points="88,182 124,125 86,137" fill="rgb(225,184,214)" fill-opacity="1"/>
<polygon points="76,114 83,113 94,116" fill="rgb(17,15,16)" fill-opacity="1"/>
<polygon points="87,47 97,44 97,58" fill="rgb(20,18,20)" fill-opacity="1"/>
<polygon points="157,56 168,62 172,50" fill="rgb(74,68,71)" fill-opacity="1"/>
<polygon points="75,111 84,96 115,118" fill="rgb(226,185,214)" fill-opacity="1"/>
<polygon points="141,59 155,46 159,62" fill="rgb(205,176,196)" fill-opacity="1"/></svg>