<?xml version="1.0" standalone="no"?>
<svg xmlns="http://www.w3.org/2000/svg" version="1.2" baseProfile="tiny" width="256" height="256">
<ellipse cx="158" cy="209" rx="19" ry="31" fill="rgb(180,162,110)" fill-opacity="1" />
<circle cx="139" cy="97" r="74" fill="rgb(137,122,140)" fill-opacity="1" />
<circle cx="126" cy="178" r="27" fill="rgb(158,120,129)" fill-opacity="1" />
<circle cx="167" cy="40" r="28" fill="rgb(214,210,210)" fill-opacity="1" />
<ellipse cx="39" cy="194" rx="18" ry="22" fill="rgb(192,169,95)" fill-opacity="1" />
<g transform="translate(103 49) rotate(55) scale(13 31)"><ellipse cx="0" cy="0" rx="1" ry="1" fill="rgb(57,51,58)" fill-opacity="1" /></g>
<ellipse cx="238" cy="189" rx="34" ry="8" fill="rgb(96,82,39)" fill-opacity="1" />
<g transform="translate(117 86) rotate(54) scale(37 49)"><ellipse cx="0" cy="0" rx="1" ry="1" fill="rgb(156,133,145)" fill-opacity="1" /></g>
<circle cx="168" cy="190" r="6" fill="rgb(14,14,12)" fill-opacity="1" />
<circle cx="59" cy="169" r="13" fill="rgb(161,148,146)" fill-opacity="1" />
<g transform="translate(155 101) rotate(227) scale(40 47)"><ellipse cx="0" cy="0" rx="1" ry="1" fill="rgb(139,118,152)" fill-opacity="1" /></g>
<circle cx="123" cy="146" r="29" fill="rgb(149,136,160)" fill-opacity="1" />
<circle cx="195" cy="77" r="15" fill="rgb(82,70,92)" fill-opacity="1" />
<g transform="translate(144 182) rotate(348) scale(8 21)"><ellipse cx="0" cy="0" rx="1" ry="1" fill="rgb(207,194,207)" fill-opacity="1" /></g>
<g transform="translate(163 210) rotate(333) scale(14 34)"><ellipse cx="0" cy="0" rx="1" ry="1" fill="rgb(205,184,129)" fill-opacity="1" /></g>
<ellipse cx="128" cy="190" rx="9" ry="15" fill="rgb(105,52,52)" fill-opacity="1" />
<circle cx="149" cy="25" r="8" fill="rgb(243,240,239)" fill-opacity="1" />
<g transform="translate(183 86) rotate(75) scale(22 18)"><ellipse cx="0" cy="0" rx="1" ry="1" fill="rgb(133,113,150)" fill-opacity="1" /></g>
<g transform="translate(166 224) rotate(0) scale(22 10)"><ellipse cx="0" cy="0" rx="1" ry="1" fill="rgb(223,197,111)" fill-opacity="1" /></g>
<g transform="translate(97 107) rotate(48) scale(15 15)"><ellipse cx="0" cy="0" rx="1" ry="1" fill="rgb(213,184,101)" fill-opacity="1" /></g>
<ellipse cx="130" cy="115" rx="22" ry="21" fill="rgb(135,113,147)" fill-opacity="1" />
<ellipse cx="171" cy="107" rx="41" ry="33" fill="rgb(129,108,143)" fill-opacity="1" />
<g transform="translate(161 106) rotate(98) scale(32 29)"><ellipse cx="0" cy="0" rx="1" ry="1" fill="rgb(138,115,152)" fill-opacity="1" /></g>
<circle cx="125" cy="24" r="5" fill="rgb(180,179,177)" fill-opacity="1" />
<circle cx="107" cy="100" r="7" fill="rgb(236,205,107)" fill-opacity="1" />
<ellipse cx="111" cy="72" rx="20" ry="19" fill="rgb(162,143,167)" fill-opacity="1" />
<g transform="translate(173 151) rotate(254) scale(2 26)"><ellipse cx="0" cy="0" rx="1" ry="1" fill="rgb(102,94,114)" fill-opacity="1" /></g>
<ellipse cx="156" cy="110" rx="32" ry="25" fill="rgb(138,114,151)" fill-opacity="1" />
<ellipse cx="55" cy="184" rx="5" ry="7" fill="rgb(232,205,120)" fill-opacity="1" />
<ellipse cx="140" cy="97" rx="4" ry="9" fill="rgb(186,95,104)" fill-opacity="1" />
<g transform="translate(118 132) rotate(118) scale(9 12)"><ellipse cx="0" cy="0" rx="1" ry="1" fill="rgb(129,110,144)" fill-opacity="1" /></g>
<ellipse cx="169" cy="99" rx="21" ry="36" fill="rgb(136,116,154)" fill-opacity="1" />
<circle cx="162" cy="110" r="23" fill="rgb(136,115,154)" fill-opacity="1" />
<circle cx="235" cy="85" r="1" fill="rgb(0,0,0)" fill-opacity="1" />
<g transform="translate(160 77) rotate(225) scale(42 6)"><ellipse cx="0" cy="0" rx="1" ry="1" fill="rgb(136,116,153)" fill-opacity="1" /></g>
<ellipse cx="176" cy="49" rx="26" ry="10" fill="rgb(218,214,212)" fill-opacity="1" />
<ellipse cx="201" cy="178" rx="13" ry="8" fill="rgb(107,99,90)" fill-opacity="1" />
<g transform="translate(143 142) rotate(0) scale(18 7)"><ellipse cx="0" cy="0" rx="1" ry="1" fill="rgb(175,164,185)" fill-opacity="1" /></g>
<ellipse cx="73" cy="71" rx="5" ry="8" fill="rgb(6,5,7)" fill-opacity="1" />
<ellipse cx="35" cy="197" rx="19" ry="8" fill="rgb(224,197,110)" fill-opacity="1" />
<ellipse cx="135" cy="52" rx="6" ry="27" fill="rgb(155,140,163)" fill-opacity="1" />
<circle cx="231" cy="0" r="1" fill="rgb(0,0,0)" fill-opacity="1" />
<g transform="translate(148 187) rotate(275) scale(11 10)"><ellipse cx="0" cy="0" rx="1" ry="1" fill="rgb(210,198,214)" fill-opacity="1" /></g>
<ellipse cx="159" cy="34" rx="29" ry="11" fill="rgb(244,241,239)" fill-opacity="1" />
<ellipse cx="134" cy="63" rx="9" ry="26" fill="rgb(141,122,151)" fill-opacity="1" />
<circle cx="172" cy="199" r="5" fill="rgb(33,28,17)" fill-opacity="1" />
<circle cx="186" cy="169" r="7" fill="rgb(96,95,112)" fill-opacity="1" />
<g transform="translate(162 77) rotate(62) scale(21 16)"><ellipse cx="0" cy="0" rx="1" ry="1" fill="rgb(136,116,152)" fill-opacity="1" /></g>
<g transform="translate(135 61) rotate(314) scale(6 22)"><ellipse cx="0" cy="0" rx="1" ry="1" fill="rgb(146,126,158)" fill-opacity="1" /></g>
<ellipse cx="162" cy="84" rx="1" ry="29" fill="rgb(131,111,148)" fill-opacity="1" /></svg>