<?xml version="1.0" standalone="no"?>
<svg xmlns="http://www.w3.org/2000/svg" version="1.2" baseProfile="tiny" width="256" height="256">
<polygon points="35,245 255,131 23,0" fill="rgb(137,142,144)" fill-opacity="1"/>
<polygon points="255,240 129,12 17,43" fill="rgb(150,154,155)" fill-opacity="1"/>
<polygon points="32,180 92,217 35,244" fill="rgb(7,7,7)" fill-opacity="1"/>
<polygon points="140,247 188,31 246,158" fill="rgb(153,156,157)" fill-opacity="1"/>
<polygon points="55,174 56,152 76,163" fill="rgb(22,22,22)" fill-opacity="1"/>
<polygon points="13,79 128,15 22,174" fill="rgb(214,214,214)" fill-opacity="1"/>
<polygon points="20,70 119,87 82,21" fill="rgb(217,217,217)" fill-opacity="1"/>
<polygon points="233,160 244,230 136,152" fill="rgb(104,111,116)" fill-opacity="1"/>
<polygon points="25,61 67,27 24,0" fill="rgb(1,1,1)" fill-opacity="1"/>
<polygon points="211,45 131,118 184,160" fill="rgb(206,206,207)" fill-opacity="1"/>
<polygon points="183,226 154,236 142,172" fill="rgb(195,195,196)" fill-opacity="1"/>
<polygon points="148,208 58,123 122,42" fill="rgb(88,107,115)" fill-opacity="1"/>
<polygon points="36,118 91,184 116,169" fill="rgb(207,208,208)" fill-opacity="1"/>
<polygon points="56,193 92,183 20,160" fill="rgb(198,198,198)" fill-opacity="1"/>
<polygon points="89,225 125,191 73,198" fill="rgb(160,160,160)" fill-opacity="1"/>
<polygon points="63,31 180,154 212,154" fill="rgb(210,210,210)" fill-opacity="1"/>
<polygon points="124,91 132,124 87,85" fill="rgb(24,25,25)" fill-opacity="1"/>
<polygon points="162,123 89,198 63,175" fill="rgb(196,196,196)" fill-opacity="1"/>
<polygon points="160,140 143,202 101,180" fill="rgb(57,69,76)" fill-opacity="1"/>
<polygon points="210,151 186,123 209,112" fill="rgb(28,28,28)" fill-opacity="1"/>
<polygon points="33,194 78,192 81,216" fill="rgb(3,3,3)" fill-opacity="1"/>
<polygon points="76,133 110,105 107,134" fill="rgb(91,177,211)" fill-opacity="1"/>
<polygon points="190,49 204,51 161,107" fill="rgb(233,233,233)" fill-opacity="1"/>
<polygon points="171,239 179,171 146,185" fill="rgb(216,216,216)" fill-opacity="1"/>
<polygon points="163,166 148,183 179,174" fill="rgb(205,205,205)" fill-opacity="1"/>
<polygon points="31,172 22,68 73,143" fill="rgb(212,212,212)" fill-opacity="1"/>
<polygon points="174,97 72,59 65,78" fill="rgb(214,214,214)" fill-opacity="1"/>
<polygon points="89,152 66,111 69,137" fill="rgb(7,10,11)" fill-opacity="1"/>
<polygon points="116,82 166,154 154,65" fill="rgb(204,204,204)" fill-opacity="1"/>
<polygon points="116,168 169,110 135,119" fill="rgb(199,199,199)" fill-opacity="1"/>
<polygon points="54,38 149,46 125,20" fill="rgb(209,209,209)" fill-opacity="1"/>
<polygon points="242,142 220,155 197,78" fill="rgb(212,212,212)" fill-opacity="1"/>
<polygon points="32,53 75,47 36,120" fill="rgb(230,230,230)" fill-opacity="1"/>
<polygon points="64,129 44,179 66,64" fill="rgb(214,214,214)" fill-opacity="1"/>
<polygon points="208,205 240,219 232,172" fill="rgb(197,197,197)" fill-opacity="1"/>
<polygon points="166,236 183,215 147,199" fill="rgb(224,224,224)" fill-opacity="1"/>
<polygon points="159,233 140,247 148,211" fill="rgb(6,6,6)" fill-opacity="1"/>
<polygon points="196,156 242,151 234,126" fill="rgb(214,215,215)" fill-opacity="1"/>
<polygon points="115,149 133,113 82,148" fill="rgb(75,76,77)" fill-opacity="1"/>
<polygon points="26,168 22,174 16,142" fill="rgb(75,75,75)" fill-opacity="1"/>
<polygon points="160,88 211,63 187,133" fill="rgb(214,214,214)" fill-opacity="1"/>
<polygon points="206,99 166,156 209,58" fill="rgb(209,209,209)" fill-opacity="1"/>
<polygon points="16,150 87,154 21,100" fill="rgb(214,214,214)" fill-opacity="1"/>
<polygon points="83,188 40,199 59,230" fill="rgb(1,1,1)" fill-opacity="1"/>
<polygon points="169,160 115,205 149,133" fill="rgb(50,63,70)" fill-opacity="1"/>
<polygon points="13,99 31,56 22,129" fill="rgb(239,238,238)" fill-opacity="1"/>
<polygon points="104,57 134,78 135,45" fill="rgb(13,13,13)" fill-opacity="1"/>
<polygon points="157,125 163,84 211,107" fill="rgb(217,218,218)" fill-opacity="1"/>
<polygon points="192,205 247,157 169,161" fill="rgb(62,74,81)" fill-opacity="1"/>
<polygon points="126,161 75,148 71,181" fill="rgb(211,211,212)" fill-opacity="1"/>
<polygon points="195,140 215,139 208,117" fill="rgb(12,12,12)" fill-opacity="1"/>
<polygon points="52,16 68,27 18,45" fill="rgb(0,0,0)" fill-opacity="1"/>
<polygon points="181,105 168,157 203,159" fill="rgb(209,209,210)" fill-opacity="1"/>
<polygon points="232,118 253,130 241,141" fill="rgb(9,9,9)" fill-opacity="1"/>
<polygon points="188,171 210,164 181,217" fill="rgb(69,81,88)" fill-opacity="1"/>
<polygon points="95,138 76,137 80,146" fill="rgb(10,12,13)" fill-opacity="1"/>
<polygon points="133,115 128,99 108,130" fill="rgb(64,65,66)" fill-opacity="1"/>
<polygon points="113,115 72,111 95,93" fill="rgb(69,156,188)" fill-opacity="1"/>
<polygon points="218,8 218,8 217,9" fill="rgb(0,0,0)" fill-opacity="1"/>
<polygon points="53,168 38,182 15,146" fill="rgb(207,207,207)" fill-opacity="1"/></svg>