<?xml version="1.0" standalone="no"?>
<svg xmlns="http://www.w3.org/2000/svg" version="1.2" baseProfile="tiny" width="256" height="256">
<polygon points="35,245 255,131 23,0" fill="rgb(137,142,144)" fill-opacity="1"/>
<polygon points="255,240 129,12 17,43" fill="rgb(150,154,155)" fill-opacity="1"/>
<polygon points="32,180 92,217 35,244" fill="rgb(7,7,7)" fill-opacity="1"/>
<polygon points="140,247 188,31 246,158" fill="rgb(153,156,157)" fill-opacity="1"/>
<polygon points="55,174 56,152 76,163" fill="rgb(22,22,22)" fill-opacity="1"/>
<polygon points="13,79 128,15 22,174" fill="rgb(214,214,214)" fill-opacity="1"/>
<polygon points="20,70 119,87 82,21" fill="rgb(217,217,217)" fill-opacity="1"/>
<polygon points="233,160 244,230 136,152" fill="rgb(104,111,116)" fill-opacity="1"/>
<polygon points="25,61 67,27 24,0" fill="rgb(1,1,1)" fill-opacity="1"/>
<polygon points="211,45 131,118 184,160" fill="rgb(206,206,207)" fill-opacity="1"/>
<polygon points="183,226 154,236 142,172" fill="rgb(195,195,196)" fill-opacity="1"/>
<polygon points="148,208 58,123 122,42" fill="rgb(88,107,115)" fill-opacity="1"/>
<polygon points="36,118 91,184 116,169" fill="rgb(207,208,208)" fill-opacity="1"/>
<polygon points="56,193 92,183 20,160" fill="rgb(198,198,198)" fill-opacity="1"/>
<polygon points="89,225 125,191 73,198" fill="rgb(160,160,160)" fill-opacity="1"/>
<polygon points="63,31 180,154 212,154" fill="rgb(210,210,210)" fill-opacity="1"/>
<polygon points="124,91 132,124 87,85" fill="rgb(24,25,25)" fill-opacity="1"/>
<polygon points="162,123 89,198 63,175" fill="rgb(196,196,196)" fill-opacity="1"/>
<polygon points="160,140 143,202 101,180" fill="rgb(57,69,76)" fill-opacity="1"/>
<polygon points="210,151 186,123 209,112" fill="rgb(28,28,28)" fill-opacity="1"/></svg>