<?xml version="1.0" standalone="no"?>
<svg xmlns="http://www.w3.org/2000/svg" version="1.2" baseProfile="tiny" width="256" height="256">
<ellipse cx="128" cy="164" rx="81" ry="59" fill="rgb(113,71,84)" fill-opacity="1" />
<circle cx="111" cy="200" r="25" fill="rgb(84,98,108)" fill-opacity="1" />
<ellipse cx="151" cy="126" rx="22" ry="95" fill="rgb(141,74,91)" fill-opacity="1" />
<ellipse cx="56" cy="118" rx="19" ry="40" fill="rgb(220,93,113)" fill-opacity="1" />
<ellipse cx="109" cy="17" rx="1" ry="1" fill="rgb(0,0,0)" fill-opacity="1" />
<g transform="translate(122 147) rotate(117) scale(32 51)"><ellipse cx="0" cy="0" rx="1" ry="1" fill="rgb(59,64,71)" fill-opacity="1" /></g>
<g transform="translate(126 164) rotate(79) scale(30 39)"><ellipse cx="0" cy="0" rx="1" ry="1" fill="rgb(87,99,109)" fill-opacity="1" /></g>
<ellipse cx="238" cy="255" rx="1" ry="1" fill="rgb(0,0,0)" fill-opacity="1" />
<g transform="translate(176 162) rotate(193) scale(32 39)"><ellipse cx="0" cy="0" rx="1" ry="1" fill="rgb(161,82,98)" fill-opacity="1" /></g>
<ellipse cx="159" cy="215" rx="29" ry="4" fill="rgb(37,46,57)" fill-opacity="1" />
<g transform="translate(150 166) rotate(211) scale(10 56)"><ellipse cx="0" cy="0" rx="1" ry="1" fill="rgb(57,58,71)" fill-opacity="1" /></g>
<circle cx="189" cy="152" r="20" fill="rgb(220,107,124)" fill-opacity="1" />
<circle cx="151" cy="56" r="19" fill="rgb(213,107,123)" fill-opacity="1" />
<g transform="translate(180 180) rotate(86) scale(35 14)"><ellipse cx="0" cy="0" rx="1" ry="1" fill="rgb(202,89,108)" fill-opacity="1" /></g>
<circle cx="148" cy="164" r="22" fill="rgb(69,82,93)" fill-opacity="1" />
<ellipse cx="147" cy="179" rx="18" ry="9" fill="rgb(63,75,88)" fill-opacity="1" />
<ellipse cx="66" cy="163" rx="14" ry="19" fill="rgb(222,81,105)" fill-opacity="1" />
<g transform="translate(105 125) rotate(340) scale(32 16)"><ellipse cx="0" cy="0" rx="1" ry="1" fill="rgb(3,2,2)" fill-opacity="1" /></g>
<ellipse cx="81" cy="144" rx="4" ry="18" fill="rgb(5,2,2)" fill-opacity="1" />
<g transform="translate(152 87) rotate(28) scale(14 30)"><ellipse cx="0" cy="0" rx="1" ry="1" fill="rgb(219,80,103)" fill-opacity="1" /></g>
<g transform="translate(147 67) rotate(56) scale(14 14)"><ellipse cx="0" cy="0" rx="1" ry="1" fill="rgb(215,108,126)" fill-opacity="1" /></g>
<circle cx="84" cy="142" r="9" fill="rgb(3,1,1)" fill-opacity="1" />
<circle cx="21" cy="0" r="1" fill="rgb(0,0,0)" fill-opacity="1" />
<circle cx="106" cy="177" r="13" fill="rgb(113,126,135)" fill-opacity="1" />
<ellipse cx="48" cy="28" rx="1" ry="1" fill="rgb(0,0,0)" fill-opacity="1" />
<ellipse cx="186" cy="166" rx="17" ry="31" fill="rgb(225,100,119)" fill-opacity="1" />
<circle cx="0" cy="81" r="1" fill="rgb(0,0,0)" fill-opacity="1" />
<circle cx="152" cy="116" r="16" fill="rgb(204,74,101)" fill-opacity="1" />
<circle cx="174" cy="14" r="1" fill="rgb(0,0,0)" fill-opacity="1" />
<circle cx="176" cy="125" r="9" fill="rgb(5,3,4)" fill-opacity="1" />
<ellipse cx="57" cy="99" rx="18" ry="18" fill="rgb(218,111,128)" fill-opacity="1" />
<ellipse cx="132" cy="139" rx="14" ry="10" fill="rgb(104,118,126)" fill-opacity="1" />
<circle cx="80" cy="181" r="11" fill="rgb(181,66,96)" fill-opacity="1" />
<g transform="translate(178 124) rotate(214) scale(11 6)"><ellipse cx="0" cy="0" rx="1" ry="1" fill="rgb(3,1,1)" fill-opacity="1" /></g>
<circle cx="0" cy="81" r="1" fill="rgb(0,0,0)" fill-opacity="1" />
<ellipse cx="63" cy="191" rx="6" ry="7" fill="rgb(16,5,7)" fill-opacity="1" />
<ellipse cx="161" cy="150" rx="10" ry="11" fill="rgb(51,47,57)" fill-opacity="1" />
<circle cx="84" cy="65" r="1" fill="rgb(0,0,0)" fill-opacity="1" />
<ellipse cx="157" cy="133" rx="8" ry="12" fill="rgb(148,69,94)" fill-opacity="1" />
<circle cx="85" cy="204" r="9" fill="rgb(55,58,69)" fill-opacity="1" />
<g transform="translate(149 159) rotate(234) scale(27 13)"><ellipse cx="0" cy="0" rx="1" ry="1" fill="rgb(77,92,103)" fill-opacity="1" /></g>
<ellipse cx="54" cy="179" rx="4" ry="6" fill="rgb(13,5,7)" fill-opacity="1" />
<g transform="translate(96 209) rotate(334) scale(9 12)"><ellipse cx="0" cy="0" rx="1" ry="1" fill="rgb(79,97,106)" fill-opacity="1" /></g>
<ellipse cx="128" cy="211" rx="15" ry="12" fill="rgb(61,73,89)" fill-opacity="1" />
<g transform="translate(87 206) rotate(86) scale(12 2)"><ellipse cx="0" cy="0" rx="1" ry="1" fill="rgb(63,55,67)" fill-opacity="1" /></g>
<circle cx="88" cy="163" r="5" fill="rgb(135,146,154)" fill-opacity="1" />
<circle cx="59" cy="151" r="15" fill="rgb(232,84,107)" fill-opacity="1" />
<circle cx="181" cy="206" r="11" fill="rgb(122,69,88)" fill-opacity="1" />
<circle cx="131" cy="201" r="12" fill="rgb(63,71,87)" fill-opacity="1" />
<ellipse cx="211" cy="25" rx="1" ry="1" fill="rgb(0,0,0)" fill-opacity="1" />
<ellipse cx="141" cy="146" rx="19" ry="13" fill="rgb(84,100,109)" fill-opacity="1" />
<ellipse cx="159" cy="92" rx="10" ry="30" fill="rgb(233,84,108)" fill-opacity="1" />
<ellipse cx="178" cy="197" rx="11" ry="7" fill="rgb(233,85,108)" fill-opacity="1" />
<ellipse cx="129" cy="145" rx="18" ry="8" fill="rgb(100,116,124)" fill-opacity="1" />
<g transform="translate(121 165) rotate(106) scale(13 14)"><ellipse cx="0" cy="0" rx="1" ry="1" fill="rgb(93,108,116)" fill-opacity="1" /></g>
<g transform="translate(60 104) rotate(5) scale(8 3)"><ellipse cx="0" cy="0" rx="1" ry="1" fill="rgb(232,230,232)" fill-opacity="1" /></g>
<circle cx="185" cy="149" r="11" fill="rgb(203,139,151)" fill-opacity="1" />
<g transform="translate(113 195) rotate(299) scale(15 7)"><ellipse cx="0" cy="0" rx="1" ry="1" fill="rgb(113,126,135)" fill-opacity="1" /></g>
<ellipse cx="134" cy="102" rx="3" ry="24" fill="rgb(28,5,16)" fill-opacity="1" />
<g transform="translate(147 59) rotate(248) scale(9 7)"><ellipse cx="0" cy="0" rx="1" ry="1" fill="rgb(198,152,163)" fill-opacity="1" /></g>
<ellipse cx="136" cy="142" rx="11" ry="17" fill="rgb(94,109,118)" fill-opacity="1" />
<ellipse cx="45" cy="110" rx="7" ry="25" fill="rgb(232,96,117)" fill-opacity="1" />
<g transform="translate(138 79) rotate(85) scale(15 3)"><ellipse cx="0" cy="0" rx="1" ry="1" fill="rgb(229,82,105)" fill-opacity="1" /></g>
<g transform="translate(70 111) rotate(134) scale(8 3)"><ellipse cx="0" cy="0" rx="1" ry="1" fill="rgb(227,82,104)" fill-opacity="1" /></g>
<ellipse cx="145" cy="83" rx="10" ry="16" fill="rgb(233,84,107)" fill-opacity="1" />
<g transform="translate(127 221) rotate(50) scale(2 4)"><ellipse cx="0" cy="0" rx="1" ry="1" fill="rgb(54,66,80)" fill-opacity="1" /></g>
<circle cx="173" cy="193" r="14" fill="rgb(226,82,107)" fill-opacity="1" />
<g transform="translate(57 131) rotate(247) scale(23 17)"><ellipse cx="0" cy="0" rx="1" ry="1" fill="rgb(232,83,107)" fill-opacity="1" /></g>
<circle cx="185" cy="155" r="5" fill="rgb(230,226,230)" fill-opacity="1" />
<g transform="translate(148 160) rotate(225) scale(8 16)"><ellipse cx="0" cy="0" rx="1" ry="1" fill="rgb(65,77,91)" fill-opacity="1" /></g>
<circle cx="169" cy="136" r="5" fill="rgb(6,1,5)" fill-opacity="1" />
<circle cx="215" cy="83" r="1" fill="rgb(0,0,0)" fill-opacity="1" />
<g transform="translate(129 113) rotate(203) scale(4 8)"><ellipse cx="0" cy="0" rx="1" ry="1" fill="rgb(0,0,0)" fill-opacity="1" /></g>
<ellipse cx="107" cy="140" rx="7" ry="5" fill="rgb(6,5,6)" fill-opacity="1" />
<circle cx="84" cy="150" r="6" fill="rgb(3,0,0)" fill-opacity="1" />
<ellipse cx="150" cy="102" rx="13" ry="12" fill="rgb(234,84,108)" fill-opacity="1" />
<circle cx="165" cy="148" r="5" fill="rgb(10,5,7)" fill-opacity="1" />
<ellipse cx="158" cy="203" rx="13" ry="8" fill="rgb(175,63,95)" fill-opacity="1" />
<g transform="translate(150 124) rotate(189) scale(14 6)"><ellipse cx="0" cy="0" rx="1" ry="1" fill="rgb(171,64,95)" fill-opacity="1" /></g>
<circle cx="122" cy="141" r="7" fill="rgb(124,135,143)" fill-opacity="1" />
<circle cx="148" cy="217" r="5" fill="rgb(5,6,8)" fill-opacity="1" />
<ellipse cx="151" cy="110" rx="14" ry="3" fill="rgb(234,84,107)" fill-opacity="1" />
<g transform="translate(111 158) rotate(311) scale(28 1)"><ellipse cx="0" cy="0" rx="1" ry="1" fill="rgb(125,137,145)" fill-opacity="1" /></g>
<circle cx="166" cy="156" r="4" fill="rgb(28,17,21)" fill-opacity="1" />
<ellipse cx="142" cy="53" rx="2" ry="4" fill="rgb(108,86,103)" fill-opacity="1" />
<circle cx="151" cy="34" r="3" fill="rgb(0,0,0)" fill-opacity="1" />
<circle cx="77" cy="170" r="7" fill="rgb(232,85,108)" fill-opacity="1" />
<circle cx="182" cy="211" r="6" fill="rgb(54,65,80)" fill-opacity="1" />
<ellipse cx="255" cy="178" rx="1" ry="1" fill="rgb(0,0,0)" fill-opacity="1" />
<circle cx="92" cy="157" r="5" fill="rgb(129,140,149)" fill-opacity="1" />
<circle cx="58" cy="185" r="5" fill="rgb(16,4,6)" fill-opacity="1" />
<ellipse cx="130" cy="150" rx="9" ry="7" fill="rgb(84,102,110)" fill-opacity="1" />
<circle cx="116" cy="148" r="5" fill="rgb(123,134,142)" fill-opacity="1" />
<g transform="translate(69 182) rotate(194) scale(8 5)"><ellipse cx="0" cy="0" rx="1" ry="1" fill="rgb(169,62,93)" fill-opacity="1" /></g>
<ellipse cx="61" cy="148" rx="15" ry="25" fill="rgb(233,84,108)" fill-opacity="1" />
<ellipse cx="41" cy="103" rx="4" ry="9" fill="rgb(219,91,111)" fill-opacity="1" />
<circle cx="42" cy="43" r="1" fill="rgb(0,0,0)" fill-opacity="1" />
<ellipse cx="92" cy="189" rx="3" ry="24" fill="rgb(74,90,99)" fill-opacity="1" />
<ellipse cx="109" cy="169" rx="1" ry="6" fill="rgb(62,70,74)" fill-opacity="1" />
<g transform="translate(138 190) rotate(347) scale(1 20)"><ellipse cx="0" cy="0" rx="1" ry="1" fill="rgb(55,56,71)" fill-opacity="1" /></g>
<circle cx="193" cy="171" r="12" fill="rgb(234,86,109)" fill-opacity="1" />
<circle cx="255" cy="147" r="1" fill="rgb(0,0,0)" fill-opacity="1" />
<ellipse cx="109" cy="68" rx="1" ry="1" fill="rgb(0,0,0)" fill-opacity="1" />
<circle cx="148" cy="63" r="5" fill="rgb(216,213,219)" fill-opacity="1" />
<g transform="translate(153 57) rotate(130) scale(3 4)"><ellipse cx="0" cy="0" rx="1" ry="1" fill="rgb(179,85,105)" fill-opacity="1" /></g>
<ellipse cx="119" cy="220" rx="12" ry="4" fill="rgb(61,74,89)" fill-opacity="1" />
<ellipse cx="137" cy="178" rx="6" ry="12" fill="rgb(53,62,77)" fill-opacity="1" />
<ellipse cx="58" cy="83" rx="6" ry="4" fill="rgb(157,84,94)" fill-opacity="1" />
<circle cx="197" cy="94" r="1" fill="rgb(0,0,0)" fill-opacity="1" />
<circle cx="238" cy="255" r="1" fill="rgb(0,0,0)" fill-opacity="1" />
<circle cx="200" cy="138" r="4" fill="rgb(226,87,108)" fill-opacity="1" />
<circle cx="51" cy="141" r="9" fill="rgb(234,83,107)" fill-opacity="1" />
<g transform="translate(99 123) rotate(357) scale(23 11)"><ellipse cx="0" cy="0" rx="1" ry="1" fill="rgb(0,0,0)" fill-opacity="1" /></g>
<circle cx="147" cy="58" r="1" fill="rgb(103,55,61)" fill-opacity="1" />
<g transform="translate(186 136) rotate(48) scale(4 6)"><ellipse cx="0" cy="0" rx="1" ry="1" fill="rgb(237,134,147)" fill-opacity="1" /></g>
<ellipse cx="169" cy="64" rx="2" ry="10" fill="rgb(203,73,94)" fill-opacity="1" />
<g transform="translate(117 215) rotate(34) scale(6 11)"><ellipse cx="0" cy="0" rx="1" ry="1" fill="rgb(61,74,90)" fill-opacity="1" /></g>
<circle cx="194" cy="147" r="6" fill="rgb(200,86,106)" fill-opacity="1" />
<circle cx="54" cy="81" r="3" fill="rgb(78,43,47)" fill-opacity="1" />
<ellipse cx="0" cy="137" rx="1" ry="1" fill="rgb(0,0,0)" fill-opacity="1" />
<circle cx="200" cy="150" r="8" fill="rgb(232,86,108)" fill-opacity="1" />
<ellipse cx="134" cy="202" rx="5" ry="21" fill="rgb(59,70,85)" fill-opacity="1" />
<g transform="translate(61 110) rotate(154) scale(16 1)"><ellipse cx="0" cy="0" rx="1" ry="1" fill="rgb(207,80,101)" fill-opacity="1" /></g>
<g transform="translate(186 149) rotate(262) scale(1 16)"><ellipse cx="0" cy="0" rx="1" ry="1" fill="rgb(210,87,106)" fill-opacity="1" /></g>
<g transform="translate(58 81) rotate(8) scale(6 1)"><ellipse cx="0" cy="0" rx="1" ry="1" fill="rgb(17,8,9)" fill-opacity="1" /></g>
<circle cx="187" cy="176" r="16" fill="rgb(234,86,109)" fill-opacity="1" />
<circle cx="0" cy="137" r="1" fill="rgb(0,0,0)" fill-opacity="1" />
<ellipse cx="56" cy="86" rx="8" ry="5" fill="rgb(233,127,141)" fill-opacity="1" />
<ellipse cx="82" cy="191" rx="7" ry="6" fill="rgb(163,59,91)" fill-opacity="1" />
<ellipse cx="203" cy="156" rx="5" ry="19" fill="rgb(230,86,107)" fill-opacity="1" />
<circle cx="66" cy="198" r="3" fill="rgb(2,3,3)" fill-opacity="1" />
<circle cx="44" cy="95" r="5" fill="rgb(234,128,142)" fill-opacity="1" />
<circle cx="76" cy="207" r="2" fill="rgb(2,3,3)" fill-opacity="1" />
<circle cx="85" cy="210" r="4" fill="rgb(23,28,30)" fill-opacity="1" />
<circle cx="46" cy="95" r="7" fill="rgb(234,127,141)" fill-opacity="1" />
<g transform="translate(113 186) rotate(8) scale(13 7)"><ellipse cx="0" cy="0" rx="1" ry="1" fill="rgb(115,128,137)" fill-opacity="1" /></g>
<ellipse cx="0" cy="137" rx="1" ry="1" fill="rgb(0,0,0)" fill-opacity="1" />
<g transform="translate(160 110) rotate(147) scale(8 8)"><ellipse cx="0" cy="0" rx="1" ry="1" fill="rgb(235,85,108)" fill-opacity="1" /></g>
<ellipse cx="153" cy="219" rx="2" ry="2" fill="rgb(0,0,0)" fill-opacity="1" />
<ellipse cx="81" cy="37" rx="1" ry="1" fill="rgb(0,0,0)" fill-opacity="1" /></svg>